<svg width="13" height="15" viewBox="0 0 13 15" fill="none" xmlns="http://www.w3.org/2000/svg">
<g clip-path="url(#clip0)">
<path d="M0.930279 4.85645C0.672621 4.85645 0.452935 4.94595 0.271218 5.12766C0.089502 5.30938 0 5.52364 0 5.77588V9.65431C0 9.91197 0.089502 10.1317 0.271218 10.3134C0.450222 10.4924 0.669909 10.5846 0.930279 10.5846C1.18794 10.5846 1.40762 10.4951 1.58391 10.3134C1.76021 10.1344 1.84971 9.91468 1.84971 9.65431V5.77588C1.84971 5.52364 1.76021 5.30667 1.57849 5.12766C1.39677 4.94866 1.18251 4.85645 0.930279 4.85645Z" fill="#737E99"/>
<path d="M8.39423 1.37672L9.03431 0.196917C9.07499 0.118263 9.06143 0.058595 8.9882 0.0179121C8.90955 -0.0173463 8.84988 -0.00107317 8.8092 0.0721559L8.16099 1.26281C7.58872 1.01057 6.98661 0.8831 6.34925 0.8831C5.71188 0.8831 5.10707 1.01057 4.53751 1.26281L3.88659 0.0721559C3.84319 -0.00107317 3.78352 -0.0173463 3.70758 0.0179121C3.63435 0.0613071 3.62079 0.120975 3.66147 0.196917L4.30155 1.37672C3.65334 1.70761 3.13531 2.16868 2.75018 2.75993C2.36505 3.35119 2.17249 3.9994 2.17249 4.70186H10.5097C10.5097 3.9994 10.3172 3.35119 9.93204 2.75993C9.54962 2.16868 9.03702 1.70761 8.39423 1.37672ZM4.6921 3.09625C4.62159 3.16676 4.54022 3.19931 4.44529 3.19931C4.34766 3.19931 4.269 3.16405 4.2012 3.09625C4.13611 3.02844 4.10085 2.94436 4.10085 2.84944C4.10085 2.75451 4.13339 2.67043 4.2012 2.60263C4.26629 2.53482 4.34766 2.49956 4.44529 2.49956C4.54293 2.49956 4.6243 2.53482 4.6921 2.60263C4.75991 2.67314 4.79517 2.75451 4.79517 2.84944C4.79788 2.94436 4.76262 3.02573 4.6921 3.09625ZM8.49187 3.09625C8.42678 3.16676 8.34541 3.19931 8.24778 3.19931C8.15014 3.19931 8.06877 3.16405 8.00097 3.09625C7.93045 3.02844 7.8979 2.94436 7.8979 2.84944C7.8979 2.75451 7.93316 2.67043 8.00097 2.60263C8.06877 2.53482 8.15285 2.49956 8.24778 2.49956C8.3427 2.49956 8.42407 2.53482 8.49187 2.60263C8.55697 2.67314 8.59222 2.75451 8.59222 2.84944C8.59222 2.94436 8.55968 3.02573 8.49187 3.09625Z" fill="#737E99"/>
<path d="M2.21045 11.0321C2.21045 11.3087 2.30538 11.542 2.49794 11.7346C2.69051 11.9271 2.92375 12.022 3.2004 12.022H3.86759L3.87573 14.0697C3.87573 14.3274 3.96523 14.5471 4.14695 14.7288C4.32866 14.9105 4.54293 15 4.79516 15C5.05282 15 5.2725 14.9105 5.45422 14.7288C5.63594 14.5471 5.72544 14.3301 5.72544 14.0697V12.0248H6.97033V14.0697C6.97033 14.3274 7.05983 14.5471 7.24155 14.7288C7.42326 14.9105 7.64024 15 7.90061 15C8.15827 15 8.37795 14.9105 8.55967 14.7288C8.74139 14.5471 8.83089 14.3301 8.83089 14.0697V12.0248H9.50622C9.77744 12.0248 10.008 11.9298 10.2005 11.7373C10.3931 11.5447 10.488 11.3115 10.488 11.0348V5.02731H2.21045V11.0321Z" fill="#737E99"/>
<path d="M11.7654 4.85645C11.5132 4.85645 11.2962 4.94595 11.1172 5.12224C10.9382 5.29853 10.846 5.51822 10.846 5.77588V9.65431C10.846 9.91197 10.9355 10.1317 11.1172 10.3134C11.2989 10.4951 11.5132 10.5846 11.7654 10.5846C12.0231 10.5846 12.2428 10.4951 12.4245 10.3134C12.6062 10.1317 12.6957 9.91468 12.6957 9.65431V5.77588C12.6957 5.51822 12.6062 5.29853 12.4245 5.12224C12.2428 4.94595 12.0231 4.85645 11.7654 4.85645Z" fill="#737E99"/>
</g>
<defs>
<clipPath id="clip0">
<rect width="12.6957" height="15" fill="white"/>
</clipPath>
</defs>
</svg>
