<svg width="36" height="37" viewBox="0 0 36 37" fill="none" xmlns="http://www.w3.org/2000/svg">
<path d="M34.8306 12.2309L23.8775 1.22135C23.2481 0.588733 22.2274 0.588733 21.598 1.22135L18.5147 4.32066L16.9497 5.89372L4.97392 17.9313C4.34455 18.5639 4.34455 19.59 4.97392 20.2226L15.927 31.2321C16.5564 31.8647 17.5772 31.8647 18.2066 31.2321L34.8306 14.5221C35.46 13.8895 35.46 12.8635 34.8306 12.2309Z" fill="#D7E7EF"/>
<path d="M34.9963 12.0644L24.043 1.05482C23.6946 0.704434 23.2308 0.511414 22.7377 0.511414C22.2446 0.511414 21.7808 0.704434 21.4322 1.05482L18.3489 4.15398C18.2574 4.24586 18.2574 4.39522 18.3489 4.4871C18.4405 4.57913 18.5888 4.57913 18.6803 4.4871L21.7636 1.38794C22.0238 1.12644 22.3697 0.982421 22.7377 0.982421C23.1056 0.982421 23.4514 1.12644 23.7116 1.38794L34.6649 12.3975C34.925 12.659 35.0683 13.0067 35.0683 13.3766C35.0683 13.7464 34.925 14.0941 34.6649 14.3556L18.0406 31.0653C17.7805 31.3268 17.4345 31.4708 17.0667 31.4708C16.6988 31.4708 16.3528 31.3268 16.0927 31.0653L5.13952 20.0558C4.87937 19.7943 4.73608 19.4466 4.73608 19.0767C4.73608 18.7068 4.87937 18.3591 5.13952 18.0976L17.1153 6.06C17.2069 5.96797 17.2069 5.81876 17.1153 5.72689C17.0238 5.63485 16.8755 5.63485 16.7839 5.72689L4.80812 17.7645C4.45952 18.1149 4.26733 18.5809 4.26733 19.0767C4.26733 19.5725 4.45937 20.0385 4.80812 20.3889L15.7613 31.3984C16.1097 31.7488 16.5734 31.9418 17.0667 31.9418C17.5599 31.9418 18.0236 31.7488 18.372 31.3984L34.9964 14.6886C35.345 14.3382 35.5372 13.8722 35.5372 13.3764C35.5372 12.8806 35.345 12.4147 34.9963 12.0644Z" fill="#1D2B54"/>
<path d="M6.22272 21.4792L25.1237 2.48089L27.6068 4.97679L8.70583 23.9751L6.22272 21.4792Z" fill="#6F7587"/>
<path d="M27.7777 4.80854L25.2941 2.31231C25.2025 2.22028 25.0542 2.22028 24.9627 2.31231L6.05891 21.3134C5.96734 21.4053 5.96734 21.5545 6.05891 21.6465L8.54234 24.1427C8.58625 24.1869 8.64594 24.2117 8.70812 24.2117C8.77031 24.2117 8.82984 24.1869 8.87391 24.1427L27.7777 5.14165C27.8216 5.09752 27.8463 5.03752 27.8463 4.97501C27.8463 4.91251 27.8216 4.85267 27.7777 4.80854ZM8.70797 23.643L6.55609 21.48L25.1284 2.8119L27.2805 4.97501L8.70797 23.643Z" fill="#1D2B54"/>
<path d="M25.8911 17.1168H2.38079C1.49064 17.1168 0.768921 17.8423 0.768921 18.737V26.7751V29.0068V34.3066C0.768921 35.2014 1.49064 35.9268 2.38079 35.9268H25.8911C26.7814 35.9268 27.5029 35.2014 27.5029 34.3066V18.7368C27.5029 17.8423 26.7812 17.1168 25.8911 17.1168Z" fill="#CBECFC"/>
<path d="M25.8911 16.8814H2.38079C1.36267 16.8814 0.534546 17.714 0.534546 18.7372V26.7753C0.534546 26.9055 0.639546 27.0109 0.768921 27.0109C0.898296 27.0109 1.0033 26.9055 1.0033 26.7753V18.7372C1.0033 17.9737 1.62126 17.3526 2.38079 17.3526H25.8911C26.6506 17.3526 27.2684 17.9737 27.2684 18.7372V34.3068C27.2684 35.0703 26.6506 35.6914 25.8911 35.6914H2.38079C1.62126 35.6914 1.0033 35.0703 1.0033 34.3068V29.0071C1.0033 28.8769 0.898296 28.7715 0.768921 28.7715C0.639546 28.7715 0.534546 28.8769 0.534546 29.0071V34.3068C0.534546 35.3302 1.36283 36.1626 2.38079 36.1626H25.8911C26.9091 36.1626 27.7372 35.3301 27.7372 34.3068V18.7372C27.7372 17.714 26.9091 16.8814 25.8911 16.8814Z" fill="#3A312A"/>
<path d="M5.52735 2.36932C5.37516 4.18548 3.49219 4.47211 3.49219 4.47211C5.10891 4.54859 5.51173 6.68011 5.51173 6.68011C5.54626 5.16031 7.59314 4.44965 7.59314 4.44965C6.05985 4.35746 5.52735 2.36932 5.52735 2.36932Z" fill="#D5DE58"/>
<path d="M7.60731 4.21456C6.26294 4.13367 5.75841 2.32613 5.75357 2.30775C5.72372 2.1975 5.62013 2.12479 5.50607 2.13484C5.39278 2.1452 5.30325 2.23567 5.29372 2.34953C5.15935 3.95385 3.52607 4.22838 3.45716 4.23922C3.33794 4.25728 3.252 4.36329 3.25825 4.48438C3.2645 4.60531 3.36091 4.70174 3.48138 4.70755C4.892 4.7743 5.2781 6.70498 5.28169 6.72445C5.30325 6.83612 5.40044 6.91559 5.51185 6.91559C5.51841 6.91559 5.52497 6.91543 5.53153 6.9148C5.65107 6.90475 5.74357 6.80596 5.74638 6.68566C5.77653 5.34928 7.65122 4.67897 7.67028 4.67237C7.77591 4.63547 7.84091 4.52882 7.82559 4.41747C7.81028 4.30612 7.71888 4.22131 7.60731 4.21456ZM5.48763 5.83929C5.27575 5.34771 4.9081 4.75451 4.30216 4.44527C4.76013 4.22461 5.30341 3.83072 5.58357 3.14596C5.82607 3.62827 6.23981 4.22649 6.88591 4.51595C6.41591 4.77336 5.80419 5.20777 5.48763 5.83929Z" fill="#3A312A"/>
<path d="M2.13701 5.03589C2.02936 6.32047 0.697632 6.52323 0.697632 6.52323C1.84107 6.57726 2.12607 8.08502 2.12607 8.08502C2.15045 7.01011 3.59827 6.50737 3.59827 6.50737C2.51358 6.44219 2.13701 5.03589 2.13701 5.03589Z" fill="#D5DE58"/>
<path d="M3.61221 6.27226C2.71127 6.21808 2.36658 4.98664 2.36314 4.97424C2.33377 4.86399 2.2283 4.79222 2.11611 4.80117C2.00267 4.81138 1.91298 4.90215 1.90345 5.01601C1.81314 6.09511 0.708761 6.28294 0.662667 6.29032C0.543448 6.30839 0.45751 6.41439 0.46376 6.53548C0.47001 6.65641 0.566417 6.75284 0.686886 6.75865C1.6297 6.80325 1.89361 8.1162 1.89595 8.12908C1.9172 8.2409 2.01455 8.32068 2.12611 8.32068C2.13251 8.32068 2.13908 8.32052 2.14564 8.31989C2.26517 8.31 2.35783 8.2109 2.36064 8.09044C2.38095 7.19384 3.66236 6.73462 3.67502 6.73022C3.78064 6.69347 3.8458 6.58684 3.83064 6.47549C3.81518 6.36414 3.72377 6.27902 3.61221 6.27226ZM2.11455 7.33942C1.97017 7.04323 1.74892 6.71954 1.41986 6.5102C1.7097 6.34671 1.99751 6.09731 2.1808 5.73813C2.34611 6.03245 2.59548 6.35911 2.95283 6.55841C2.66392 6.73132 2.3297 6.98889 2.11455 7.33942Z" fill="#3A312A"/>
<path d="M2.13108 0.849487C2.02842 2.13447 0.69751 2.34257 0.69751 2.34257C1.84108 2.39219 2.13202 3.89862 2.13202 3.89862C2.15217 2.82361 3.59808 2.31524 3.59808 2.31524C2.5131 2.25415 2.13108 0.849487 2.13108 0.849487Z" fill="#D5DE58"/>
<path d="M3.61108 2.08006C2.71405 2.02964 2.36359 0.810244 2.35702 0.787156C2.32703 0.676745 2.22078 0.60387 2.10921 0.614864C1.99578 0.625544 1.90656 0.71648 1.8975 0.830661C1.81125 1.91012 0.707816 2.10236 0.661567 2.1099C0.542505 2.12843 0.456724 2.23476 0.463443 2.35569C0.470161 2.47663 0.567036 2.57275 0.687504 2.57793C1.63062 2.61877 1.89953 3.93083 1.90187 3.94355C1.92343 4.05506 2.02062 4.13422 2.13187 4.13422C2.13859 4.13422 2.14546 4.1339 2.15234 4.13343C2.27171 4.12306 2.36406 4.02365 2.3664 3.90318C2.38312 3.00638 3.6628 2.54212 3.67545 2.53772C3.78108 2.50066 3.84577 2.3937 3.83014 2.28235C3.81436 2.17099 3.7228 2.08634 3.61108 2.08006ZM2.11765 3.15308C1.97218 2.85749 1.74968 2.53458 1.41969 2.32664C1.70906 2.16204 1.99578 1.91122 2.17765 1.5514C2.3439 1.84494 2.59484 2.17084 2.95296 2.36873C2.66452 2.54291 2.3314 2.80174 2.11765 3.15308Z" fill="#3A312A"/>
<path d="M22.9425 19.725C21.6179 19.725 20.5442 20.8043 20.5442 22.1355C20.5442 23.4668 21.6179 24.5461 22.9425 24.5461C24.267 24.5461 25.3408 23.4668 25.3408 22.1355C25.3406 20.8043 24.267 19.725 22.9425 19.725Z" fill="#6D8EEF"/>
<path d="M22.9425 19.4894C21.4909 19.4894 20.3098 20.6764 20.3098 22.1356C20.3098 23.5948 21.4909 24.7818 22.9425 24.7818C24.394 24.7818 25.5751 23.5948 25.5751 22.1356C25.5751 20.6764 24.394 19.4894 22.9425 19.4894ZM22.9425 24.3105C21.7493 24.3105 20.7786 23.3349 20.7786 22.1354C20.7786 20.936 21.7493 19.9604 22.9425 19.9604C24.1356 19.9604 25.1064 20.936 25.1064 22.1354C25.1064 23.3349 24.1356 24.3105 22.9425 24.3105Z" fill="#3A312A"/>
<path d="M19.758 19.725C18.4334 19.725 17.3597 20.8043 17.3597 22.1355C17.3597 23.4668 18.4334 24.5461 19.758 24.5461C21.0825 24.5461 22.1562 23.4668 22.1562 22.1355C22.1561 20.8043 21.0825 19.725 19.758 19.725Z" fill="#58B2DF"/>
<path d="M19.7579 19.4894C18.3063 19.4894 17.1252 20.6764 17.1252 22.1356C17.1252 23.5948 18.3063 24.7818 19.7579 24.7818C21.2095 24.7818 22.3906 23.5948 22.3906 22.1356C22.3906 20.6764 21.2095 19.4894 19.7579 19.4894ZM19.7579 24.3105C18.5648 24.3105 17.594 23.3349 17.594 22.1354C17.594 20.936 18.5648 19.9604 19.7579 19.9604C20.951 19.9604 21.9218 20.936 21.9218 22.1354C21.9218 23.3349 20.951 24.3105 19.7579 24.3105Z" fill="#3A312A"/>
<path d="M11.1217 24.4043H3.88794C3.75857 24.4043 3.65356 24.5096 3.65356 24.6398C3.65356 24.7699 3.75857 24.8752 3.88794 24.8752H11.1219C11.2513 24.8752 11.3563 24.7699 11.3563 24.6398C11.3563 24.5096 11.2513 24.4043 11.1217 24.4043Z" fill="#3A312A"/>
<path d="M24.515 32.5449H3.88794C3.75856 32.5449 3.65356 32.6504 3.65356 32.7806C3.65356 32.9109 3.75856 33.0164 3.88794 33.0164H24.5151C24.6445 33.0164 24.7495 32.9109 24.7495 32.7806C24.7495 32.6504 24.6444 32.5449 24.515 32.5449Z" fill="#3A312A"/>
<path d="M11.1217 21.1377H3.88794C3.75857 21.1377 3.65356 21.2431 3.65356 21.3734C3.65356 21.5036 3.75857 21.6091 3.88794 21.6091H11.1219C11.2513 21.6091 11.3563 21.5036 11.3563 21.3734C11.3563 21.2431 11.2513 21.1377 11.1217 21.1377Z" fill="#3A312A"/>
<path d="M28.8303 35.8413C32.6817 35.5659 35.5817 32.2044 35.3077 28.3331C35.0337 24.4619 31.6894 21.5469 27.8381 21.8223C23.9867 22.0977 21.0866 25.4592 21.3606 29.3305C21.6346 33.2017 24.9789 36.1167 28.8303 35.8413Z" fill="white"/>
<path d="M28.3152 21.56C24.3331 21.56 21.0933 24.8164 21.0933 28.8191C21.0933 32.8218 24.333 36.0782 28.3152 36.0782C32.2974 36.0782 35.537 32.8218 35.537 28.8191C35.537 24.8164 32.2972 21.56 28.3152 21.56ZM28.3152 35.6072C24.5916 35.6072 21.562 32.562 21.562 28.8192C21.562 25.0765 24.5916 22.0313 28.3152 22.0313C32.0388 22.0313 35.0683 25.0765 35.0683 28.8192C35.0683 32.562 32.0388 35.6072 28.3152 35.6072Z" fill="#3A312A"/>
<path d="M28.3248 23.8758C27.0142 23.8758 25.9478 24.9477 25.9478 26.2651V28.1089C25.9478 28.4101 26.1908 28.6545 26.4906 28.6545C26.7903 28.6545 27.0333 28.4103 27.0333 28.1089V26.2651C27.0333 25.5492 27.6127 24.9668 28.3248 24.9668C29.037 24.9668 29.6164 25.5492 29.6164 26.2651V28.1089C29.6164 28.4101 29.8594 28.6545 30.1591 28.6545C30.4588 28.6545 30.7017 28.4103 30.7017 28.1089V26.2651C30.7019 24.9477 29.6356 23.8758 28.3248 23.8758Z" fill="#007CBA"/>
<path d="M28.3249 23.6402C26.8848 23.6402 25.7134 24.8178 25.7134 26.2651V28.1089C25.7134 28.5397 26.062 28.8901 26.4906 28.8901C26.9192 28.8901 27.2677 28.5397 27.2677 28.1089V26.2651C27.2677 25.6791 27.7419 25.2024 28.325 25.2024C28.9081 25.2024 29.3824 25.6791 29.3824 26.2651V28.1089C29.3824 28.5397 29.7308 28.8901 30.1594 28.8901C30.588 28.8901 30.9366 28.5397 30.9366 28.1089V26.2651C30.9363 24.8176 29.7649 23.6402 28.3249 23.6402ZM30.4675 28.1089C30.4675 28.2798 30.3291 28.4189 30.1591 28.4189C29.9891 28.4189 29.8508 28.2799 29.8508 28.1089V26.2651C29.8508 25.4193 29.1663 24.7313 28.3247 24.7313C27.4831 24.7313 26.7986 25.4193 26.7986 26.2651V28.1089C26.7986 28.2798 26.6603 28.4189 26.4903 28.4189C26.3203 28.4189 26.1819 28.2799 26.1819 28.1089V26.2651C26.1819 25.0774 27.143 24.1114 28.3245 24.1114C29.5061 24.1114 30.4672 25.0776 30.4672 26.2651V28.1089H30.4675Z" fill="#3A312A"/>
<path d="M30.0012 27.9316H26.6484C25.9778 27.9316 25.4342 28.478 25.4342 29.1521V32.5222C25.4342 33.1963 25.9778 33.7427 26.6484 33.7427H30.0012C30.6719 33.7427 31.2155 33.1963 31.2155 32.5222V29.1521C31.2156 28.478 30.6719 27.9316 30.0012 27.9316Z" fill="#6DC4EF"/>
<path d="M30.0014 27.696H26.6484C25.8497 27.696 25.1998 28.3492 25.1998 29.1521V32.5222C25.1998 33.3251 25.8497 33.9783 26.6484 33.9783H30.0014C30.8002 33.9783 31.45 33.3251 31.45 32.5222V29.1521C31.45 28.3492 30.8002 27.696 30.0014 27.696ZM30.9813 32.5222C30.9813 33.0653 30.5417 33.5071 30.0014 33.5071H26.6484C26.1081 33.5071 25.6686 33.0653 25.6686 32.5222V29.1521C25.6686 28.609 26.1081 28.1672 26.6484 28.1672H30.0014C30.5417 28.1672 30.9813 28.609 30.9813 29.1521V32.5222Z" fill="#3A312A"/>
<path d="M28.3248 29.2255C27.8376 29.2255 27.4426 29.6224 27.4426 30.1121C27.4426 30.4652 27.6495 30.7675 27.9467 30.9101V32.0753C27.9467 32.2851 28.1159 32.4552 28.3247 32.4552C28.5334 32.4552 28.7027 32.2851 28.7027 32.0753V30.9101C28.9998 30.7675 29.2067 30.4652 29.2067 30.1121C29.207 29.6224 28.812 29.2255 28.3248 29.2255Z" fill="#007CBA"/>
</svg>
