<svg width="40" height="35" viewBox="0 0 40 35" fill="none" xmlns="http://www.w3.org/2000/svg">
<path d="M33.4456 5.48645H3.22323L0.586823 7.05495V30.3703C0.586823 31.1473 1.21354 31.7773 1.98659 31.7773H34.6821C35.4552 31.7773 36.0819 31.1473 36.0819 30.3703V7.05495L33.4456 5.48645Z" fill="#F9F6F6"/>
<path d="M34.6831 1.02222H1.98759C1.21447 1.02222 0.58783 1.65217 0.58783 2.4292V7.05396H36.0829V2.4292C36.0829 1.65217 35.4562 1.02222 34.6831 1.02222Z" fill="#CBD8FF"/>
<path d="M26.8569 5.10138C27.4404 5.10138 27.9135 4.62589 27.9135 4.03934C27.9135 3.45279 27.4404 2.97729 26.8569 2.97729C26.2733 2.97729 25.8003 3.45279 25.8003 4.03934C25.8003 4.62589 26.2733 5.10138 26.8569 5.10138Z" fill="#61C6F9"/>
<path d="M31.2441 5.10138C31.8276 5.10138 32.3006 4.62589 32.3006 4.03934C32.3006 3.45279 31.8276 2.97729 31.2441 2.97729C30.6605 2.97729 30.1875 3.45279 30.1875 4.03934C30.1875 4.62589 30.6605 5.10138 31.2441 5.10138Z" fill="#61C6F9"/>
<path d="M10.1601 27.1434H9.00769C8.54925 27.1434 8.17761 26.7698 8.17761 26.309V20.4506H12.3105L10.9704 26.4907C10.8856 26.8721 10.5489 27.1434 10.1601 27.1434Z" fill="#A8C6D5"/>
<path d="M7.9343 15.8997L5.99743 15.8999C4.74712 15.9 3.73369 16.9189 3.73376 18.1757C3.73384 19.4324 4.74751 20.4511 5.99782 20.451L7.93469 20.4509L7.9343 15.8997Z" fill="#DAEAEF"/>
<path d="M22.124 10.5821C20.3662 13.4754 17.224 14.6422 13.8067 14.6426L7.70944 14.643C7.11288 14.6431 6.62936 15.1292 6.62936 15.7288L6.62975 20.3968C6.62983 20.9965 7.11343 21.4825 7.70999 21.4825L13.8072 21.482C17.2246 21.4818 20.3671 22.6481 22.1254 25.5411L22.124 10.5821Z" fill="#DAE8EF"/>
<path d="M9.68095 21.3624L7.95377 21.3626C7.95595 21.3626 7.95806 21.3629 7.96033 21.3629L9.71189 21.3627C9.7015 21.3627 9.69127 21.3624 9.68095 21.3624Z" fill="#DAEAEF"/>
<path d="M12.9424 14.6422L7.70939 14.6426C7.11282 14.6427 6.6293 15.1288 6.6293 15.7284L6.62969 20.3965C6.62977 20.9961 7.11337 21.4821 7.70993 21.4821L12.9429 21.4817L12.9424 14.6422Z" fill="#80D3FC"/>
<path d="M22.4363 26.0793C23.1506 26.0792 23.7297 25.4972 23.7296 24.7791L23.7284 11.3462C23.7284 10.6282 23.1493 10.0462 22.4349 10.0463C21.7206 10.0463 21.1416 10.6284 21.1416 11.3464L21.1428 24.7793C21.1429 25.4973 21.7219 26.0794 22.4363 26.0793Z" fill="#80D3FC"/>
<path d="M32.8374 33.8292C36.4691 33.8292 39.4131 30.8699 39.4131 27.2196C39.4131 23.5692 36.4691 20.61 32.8374 20.61C29.2058 20.61 26.2617 23.5692 26.2617 27.2196C26.2617 30.8699 29.2058 33.8292 32.8374 33.8292Z" fill="#7BD0FB"/>
<path d="M19.8366 3.44916H4.26438C3.94024 3.44916 3.67758 3.71316 3.67758 4.03879C3.67758 4.36449 3.94024 4.62842 4.26438 4.62842H19.8366C20.1607 4.62842 20.4234 4.36441 20.4234 4.03879C20.4234 3.71316 20.1607 3.44916 19.8366 3.44916Z" fill="#1D2B54"/>
<path d="M33.7511 26.6243C33.6547 26.59 33.5566 26.5545 33.4583 26.518V24.5356C33.6645 24.6164 33.7847 24.718 33.7949 24.7268L33.8519 24.7684C34.0926 24.9436 34.4257 24.9103 34.6272 24.6906C34.8692 24.4268 34.8209 24.0114 34.5288 23.8051C34.218 23.5858 33.8922 23.4014 33.4583 23.3103V22.9718C33.4583 22.6488 33.2107 22.3671 32.8895 22.3576C32.5572 22.3476 32.2847 22.6154 32.2847 22.9472V23.333C32.2289 23.3465 32.1725 23.3611 32.1152 23.3784C31.4029 23.5941 30.8709 24.2056 30.7268 24.9741C30.4875 26.2495 31.239 26.8401 32.2847 27.3126V29.9116C31.9811 29.878 31.7647 29.7885 31.4235 29.5661C31.1552 29.3913 30.7875 29.4437 30.6032 29.7063C30.4107 29.9806 30.484 30.3582 30.7611 30.5403C31.3567 30.9319 31.7703 31.059 32.2847 31.0958V31.4656C32.2847 31.7886 32.5324 32.0703 32.8536 32.0799C33.1859 32.0898 33.4583 31.8221 33.4583 31.4903V31.026C35.5404 30.469 36.0186 27.4299 33.7511 26.6243ZM31.88 25.1926C31.9204 24.9772 32.0473 24.7245 32.2847 24.5829V25.9887C32.0193 25.8287 31.7895 25.6755 31.88 25.1926ZM33.4583 29.7595V27.7757C34.3876 28.1803 34.1649 29.342 33.4583 29.7595Z" fill="#1D2B54"/>
<path d="M32.8375 20.0192C28.888 20.0192 25.675 23.2489 25.675 27.2186C25.675 31.1883 28.8881 34.418 32.8375 34.418C36.7869 34.418 40 31.1885 40 27.2187C40 23.2489 36.7869 20.0192 32.8375 20.0192ZM32.8375 33.2384C29.5352 33.2384 26.8486 30.5379 26.8486 27.2187C26.8486 23.8994 29.5352 21.1989 32.8375 21.1989C36.1398 21.1989 38.8264 23.8994 38.8264 27.2187C38.8264 30.5379 36.1397 33.2384 32.8375 33.2384Z" fill="#1D2B54"/>
<path d="M25.065 31.1875H1.98664C1.53836 31.1875 1.17367 30.8209 1.17367 30.3703V7.6448H35.4952V18.7789C35.4952 19.1047 35.7578 19.3687 36.082 19.3687C36.4061 19.3687 36.6688 19.1047 36.6688 18.7789C36.6688 16.8971 36.6688 4.5637 36.6688 2.43028C36.6688 1.32925 35.7775 0.433411 34.6821 0.433411H1.98664C0.89125 0.433411 0 1.32917 0 2.43028V30.3703C0 31.4713 0.89125 32.3672 1.98664 32.3672H25.065C25.3892 32.3672 25.6518 32.1032 25.6518 31.7774C25.6519 31.4516 25.3892 31.1875 25.065 31.1875ZM1.17367 2.43028C1.17367 1.97969 1.53836 1.61312 1.98664 1.61312H34.6821C35.1304 1.61312 35.4951 1.97969 35.4951 2.43028V6.46508H1.17367V2.43028Z" fill="#1D2B54"/>
<path d="M26.8569 2.38715C25.9506 2.38715 25.2134 3.12813 25.2134 4.03904C25.2134 4.94988 25.9506 5.69086 26.8569 5.69086C27.7631 5.69086 28.5002 4.94988 28.5002 4.03904C28.5002 3.12813 27.7631 2.38715 26.8569 2.38715ZM26.8569 4.51115C26.5978 4.51115 26.3871 4.29936 26.3871 4.03904C26.3871 3.77865 26.5978 3.56686 26.8569 3.56686C27.1159 3.56686 27.3266 3.77865 27.3266 4.03904C27.3266 4.29928 27.1159 4.51115 26.8569 4.51115Z" fill="#1D2B54"/>
<path d="M31.244 2.38715C30.3378 2.38715 29.6006 3.12813 29.6006 4.03904C29.6006 4.94988 30.3378 5.69086 31.244 5.69086C32.1502 5.69086 32.8874 4.94988 32.8874 4.03904C32.8874 3.12813 32.1502 2.38715 31.244 2.38715ZM31.244 4.51115C30.985 4.51115 30.7743 4.29936 30.7743 4.03904C30.7743 3.77865 30.985 3.56686 31.244 3.56686C31.503 3.56686 31.7137 3.77865 31.7137 4.03904C31.7137 4.29928 31.503 4.51115 31.244 4.51115Z" fill="#1D2B54"/>
<path d="M9.00756 27.7333H10.1601C10.8288 27.7333 11.3975 27.2751 11.543 26.6191L12.5518 22.0725H12.943L13.8073 22.0724H13.8083C15.8057 22.0724 18.5724 22.4971 20.5559 24.4856V24.7785C20.5559 25.823 21.3969 26.6685 22.4363 26.6684C23.473 26.6683 24.3164 25.8203 24.3164 24.7783L24.3152 11.3455C24.3152 10.301 23.4741 9.45553 22.4348 9.45569C21.3957 9.45585 20.5545 10.3011 20.5547 11.3458V11.639C18.571 13.6282 15.8039 14.0531 13.8065 14.0532L7.70912 14.0537C6.93444 14.0539 6.28342 14.5887 6.09733 15.3098H5.99717C4.42529 15.3099 3.14662 16.5954 3.1467 18.1754C3.14685 19.7587 4.42131 21.0406 5.99717 21.0406H5.99756H6.17092C6.40779 21.6109 6.94967 22.021 7.59045 22.067V26.3093C7.59061 27.0943 8.22631 27.7333 9.00756 27.7333ZM10.3975 26.3623C10.3725 26.475 10.2749 26.5536 10.1601 26.5536H9.00756C8.87342 26.5536 8.76428 26.4439 8.76428 26.309V22.0727L11.3492 22.0725L10.3975 26.3623ZM22.435 10.6353C22.8254 10.6353 23.1416 10.9528 23.1416 11.3455L23.1428 24.7783C23.1428 25.1699 22.8259 25.4885 22.4362 25.4886C22.0458 25.4886 21.7297 25.1711 21.7297 24.7784L21.7284 11.3455C21.7284 10.953 22.0445 10.6353 22.435 10.6353ZM13.8068 15.2328C16.5143 15.2326 18.818 14.5341 20.555 13.2011L20.5559 22.9232C18.8189 21.5907 16.5155 20.8926 13.8084 20.8926C13.808 20.8926 13.8076 20.8926 13.8071 20.8926H13.5296L13.5291 15.2328H13.8068ZM5.99764 19.8607C5.99756 19.8607 5.99748 19.8607 5.9974 19.8607C5.07076 19.8607 4.32053 19.1069 4.32053 18.1752C4.32045 17.2457 5.07272 16.4895 5.9974 16.4894H6.04256L6.04287 19.8607H5.99764ZM7.21655 20.3894L7.21615 15.9006C7.21615 15.9002 7.21623 15.8997 7.21623 15.8993C7.21623 15.8989 7.21615 15.8985 7.21615 15.8981V15.7291C7.21615 15.4557 7.43741 15.2332 7.70944 15.2332L12.3555 15.2329L12.356 20.8927C10.4362 20.8928 8.50881 20.893 7.70991 20.8931C7.22475 20.8931 7.22022 20.3972 7.21655 20.3894Z" fill="#1D2B54"/>
</svg>
