<svg width="40" height="41" viewBox="0 0 40 41" fill="none" xmlns="http://www.w3.org/2000/svg">
<path d="M24.5638 0.59021H8.60087C8.25728 0.59021 7.92134 0.664889 7.61446 0.805217L7.13454 1.98399V6.27754C7.13454 7.09712 6.47352 7.76154 5.65813 7.76154H1.30781L0.213907 8.24386C0.074297 8.55231 0 8.88998 0 9.23534V38.3788C0 39.7008 1.06617 40.7725 2.38141 40.7725H24.5638C25.879 40.7725 26.9452 39.7008 26.9452 38.3788V2.98387C26.9452 1.66187 25.8789 0.59021 24.5638 0.59021Z" fill="#E6F7FF"/>
<path d="M29.0667 0.59021H23.9601C25.2753 0.59021 26.3415 1.66187 26.3415 2.98387V38.3788C26.3415 39.7008 25.2753 40.7725 23.9601 40.7725H29.0667C30.3819 40.7725 31.4481 39.7008 31.4481 38.3788V2.98387C31.4481 1.66187 30.3819 0.59021 29.0667 0.59021Z" fill="#E4F6FF"/>
<path d="M0.697462 7.54287L6.917 1.29132C7.12059 1.08668 7.35731 0.922871 7.6145 0.805237V6.75995C7.6145 7.57954 6.95349 8.24396 6.13809 8.24396H0.213867C0.330899 7.98552 0.493868 7.74751 0.697462 7.54287Z" fill="#80C1E2"/>
<path d="M31.9268 24.9802C31.2473 24.9802 30.6946 24.4246 30.6946 23.7416V19.2609C30.6946 18.7289 30.2639 18.2962 29.7346 18.2962H22.9483C22.419 18.2962 21.9884 18.729 21.9884 19.2609V23.7416C21.9884 24.4246 21.4357 24.9802 20.7562 24.9802C20.0768 24.9802 19.524 24.4246 19.524 23.7416V19.2609C19.524 17.3631 21.0601 15.8191 22.9483 15.8191H29.7346C31.6228 15.8191 33.1589 17.3631 33.1589 19.2609V23.7416C33.1589 24.4245 32.6062 24.9802 31.9268 24.9802Z" fill="#405593"/>
<path d="M35.3522 29.8714C35.3522 29.8714 35.3521 29.8714 35.3521 29.8714C35.2975 29.8732 35.2412 29.8741 35.191 29.8741H17.492C14.836 29.8741 12.683 27.71 12.683 25.0403V38.1049C12.683 39.5781 13.8712 40.7725 15.3369 40.7725H32.8579C34.3236 40.7725 35.5118 39.5781 35.5118 38.1049V29.8636C35.5114 29.8636 35.5111 29.8637 35.5107 29.8637C35.4527 29.8674 35.3943 29.8701 35.3522 29.8714Z" fill="#97DAFB"/>
<path d="M35.3522 29.8714C35.3522 29.8714 35.3521 29.8714 35.352 29.8714C35.2258 29.8755 35.1525 29.8735 34.9082 29.874V38.1049C34.9082 39.5781 33.72 40.7725 32.2543 40.7725H37.346C38.8117 40.7725 39.9999 39.5781 39.9999 38.1049V25.0403C39.9999 27.6508 37.9348 29.7903 35.3522 29.8714Z" fill="#97DAFB"/>
<path d="M37.3461 21.5624H15.3369C13.8712 21.5624 12.683 22.7567 12.683 24.2299V26.0851C12.683 28.7547 14.836 30.9188 17.492 30.9188H35.191C37.847 30.9188 40 28.7547 40 26.0851V24.2299C40 22.7567 38.8118 21.5624 37.3461 21.5624Z" fill="#18AFFB"/>
<path d="M35.5118 30.9072V24.229C35.5118 22.7557 34.3236 21.5614 32.8579 21.5614H15.3369C13.8712 21.5614 12.683 22.7557 12.683 24.229V26.0841C12.683 28.7537 14.836 30.9178 17.492 30.9178H35.191C35.2988 30.9178 35.4058 30.9143 35.5118 30.9072Z" fill="#18AFFB"/>
<path d="M19.4839 34.0574C18.599 34.0574 17.8816 33.3363 17.8816 32.4468V30.2779C17.8816 29.3884 18.599 28.6673 19.4839 28.6673C20.3689 28.6673 21.0863 29.3884 21.0863 30.2779V32.4468C21.0863 33.3363 20.3689 34.0574 19.4839 34.0574Z" fill="#F4FBFF"/>
<path d="M33.199 34.0574C32.3141 34.0574 31.5967 33.3363 31.5967 32.4468V30.2779C31.5967 29.3884 32.3141 28.6673 33.199 28.6673C34.084 28.6673 34.8014 29.3884 34.8014 30.2779V32.4468C34.8014 33.3363 34.084 34.0574 33.199 34.0574Z" fill="#F4FBFF"/>
<path d="M25.7935 5.29858H13.2547C12.9213 5.29858 12.6511 5.02706 12.6511 4.69211C12.6511 4.35716 12.9214 4.08563 13.2547 4.08563H25.7935C26.1269 4.08563 26.3971 4.35716 26.3971 4.69211C26.3971 5.02706 26.1269 5.29858 25.7935 5.29858Z" fill="#98A8D9"/>
<path d="M25.7935 8.8501H13.2547C12.9213 8.8501 12.6511 8.57857 12.6511 8.24362C12.6511 7.90859 12.9214 7.63715 13.2547 7.63715H25.7935C26.1269 7.63715 26.3971 7.90867 26.3971 8.24362C26.3971 8.57857 26.1269 8.8501 25.7935 8.8501Z" fill="#98A8D9"/>
</svg>
