<svg width="34" height="35" viewBox="0 0 34 35" fill="none" xmlns="http://www.w3.org/2000/svg">
<path d="M33.0821 17.1828L25.7904 14.6909C25.5737 14.6155 25.3383 14.6155 25.1195 14.6909L17.8278 17.1828C17.4049 17.3273 17.1216 17.7252 17.1216 18.1733V23.7833C17.1216 30.6308 24.7237 33.9562 25.0487 34.0965C25.1779 34.1509 25.3175 34.1782 25.455 34.1782C25.5925 34.1782 25.732 34.1509 25.8612 34.0944C26.1862 33.9562 33.7883 30.6287 33.7883 23.7833V18.1733C33.7883 17.7252 33.505 17.3273 33.0821 17.1828ZM30.0196 22.4766L26.2008 27.362C25.9675 27.6615 25.6216 27.852 25.2445 27.8897C25.1987 27.8939 25.1529 27.896 25.1091 27.896C24.78 27.896 24.457 27.7787 24.2049 27.5609L21.7737 25.4669C21.1904 24.9643 21.1216 24.0848 21.6237 23.4985C22.1237 22.9142 23.0008 22.8451 23.582 23.3477L24.9133 24.4932L27.8383 20.7532C28.3112 20.148 29.1841 20.0412 29.7883 20.5186C30.3883 20.9919 30.4946 21.8693 30.0196 22.4766Z" fill="#00A8FC"/>
<path d="M0.454956 13.2375V21.6138H14.3445V18.1795C14.3445 16.5315 15.3862 15.0657 16.9424 14.5359L20.7466 13.2375H0.454956Z" fill="#E0F1F9"/>
<path d="M14.3571 24.4052H0.454956V30.3376C0.454956 32.461 2.16329 34.1782 4.27371 34.1782H19.8862C17.1633 32.015 14.5946 28.7189 14.3571 24.4052Z" fill="#E0F1F9"/>
<path d="M21.6362 0.673157H4.27371C2.16329 0.673157 0.454956 2.39028 0.454956 4.51156V10.444H25.455V4.51156C25.455 2.39028 23.7466 0.673157 21.6362 0.673157ZM5.31537 7.65265C4.16329 7.65265 3.23204 6.71661 3.23204 5.55859C3.23204 4.40058 4.16329 3.46454 5.31537 3.46454C6.46746 3.46454 7.39871 4.40058 7.39871 5.55859C7.39871 6.7187 6.46746 7.65265 5.31537 7.65265ZM12.2612 7.65265C11.1091 7.65265 10.1779 6.71661 10.1779 5.55859C10.1779 4.40058 11.1091 3.46454 12.2612 3.46454C13.4133 3.46454 14.3445 4.40058 14.3445 5.55859C14.3445 6.7187 13.4133 7.65265 12.2612 7.65265ZM19.205 7.65265C18.0529 7.65265 17.1216 6.71661 17.1216 5.55859C17.1216 4.40058 18.0529 3.46454 19.205 3.46454C20.357 3.46454 21.2883 4.40058 21.2883 5.55859C21.2883 6.7187 20.357 7.65265 19.205 7.65265Z" fill="#E0F1F9"/>
</svg>
