<svg width="16" height="16" viewBox="0 0 16 16" fill="none" xmlns="http://www.w3.org/2000/svg">
<path d="M14.7186 6.51701L6.87848 14.3571V5.87197L10.476 2.27444C10.866 1.88448 11.4993 1.88448 11.8892 2.27444L14.7186 5.10379C15.1085 5.49375 15.1085 6.12705 14.7186 6.51701Z" fill="#737E99"/>
<path d="M13.9973 9.99433H12.7336L6.73474 15.9932H14.0002C14.5514 15.9932 15 15.5446 15 14.9934V10.9941C14.9971 10.44 14.5514 9.99433 13.9973 9.99433Z" fill="#737E99"/>
<path d="M4.99902 0.993156H0.999804C0.448593 0.993156 0 1.44175 0 1.99296V14.9904C0 15.5416 0.448593 15.9902 0.999804 15.9902H4.99902C5.55023 15.9902 5.99883 15.5416 5.99883 14.9904V1.99296C5.99883 1.44175 5.55317 0.993156 4.99902 0.993156ZM2.99941 5.49374C2.4482 5.49374 1.99961 5.04515 1.99961 4.49394C1.99961 3.94273 2.4482 3.49413 2.99941 3.49413C3.55063 3.49413 3.99922 3.94273 3.99922 4.49394C3.99922 5.04515 3.55356 5.49374 2.99941 5.49374Z" fill="#737E99"/>
</svg>
