<svg width="24" height="24" viewBox="0 0 24 24" fill="none" xmlns="http://www.w3.org/2000/svg">
<path fill-rule="evenodd" clip-rule="evenodd" d="M20.0625 7.875C20.0625 10.1532 18.2157 12 15.9375 12C13.6593 12 11.8125 10.1532 11.8125 7.875C11.8125 5.59683 13.6593 3.75 15.9375 3.75C18.2157 3.75 20.0625 5.59683 20.0625 7.875ZM10.5 8.625C10.5 10.489 8.98896 12 7.125 12C5.26104 12 3.75 10.489 3.75 8.625C3.75 6.76104 5.26104 5.25 7.125 5.25C8.98896 5.25 10.5 6.76104 10.5 8.625ZM7.125 12.9375C8.19187 12.9375 9.64875 13.2047 10.9688 13.875C10.0692 14.3227 9.33609 14.8744 8.8125 15.4688C8.15625 16.2131 7.78125 17.1061 7.78125 17.9967V18.75H0.75V16.7812C0.75 14.2191 5.03531 12.9375 7.125 12.9375ZM15.9375 13.5C13.4967 13.5 8.625 15.0075 8.625 18V20.25H23.25V18C23.25 15.0075 18.3783 13.5 15.9375 13.5Z" fill="white"/>
</svg>
