<svg width="15" height="15" viewBox="0 0 15 15" fill="none" xmlns="http://www.w3.org/2000/svg">
<g clip-path="url(#clip0)">
<path d="M14.3032 0H0.399141C0.19606 0 0.0314941 0.164566 0.0314941 0.364146V2.55952C0.0314941 2.76261 0.19606 2.92367 0.39564 2.92367H14.2997C14.5028 2.92367 14.6638 2.7591 14.6638 2.55952V0.364146C14.6673 0.164566 14.5028 0 14.3032 0Z" fill="#737E99"/>
<path d="M14.3032 4.0231H11.0119C10.8088 4.0231 10.6478 4.18767 10.6478 4.38725V6.58263C10.6478 6.78571 10.8123 6.94677 11.0119 6.94677H14.3032C14.5063 6.94677 14.6674 6.78221 14.6674 6.58263V4.38725C14.6674 4.18767 14.5028 4.0231 14.3032 4.0231Z" fill="#737E99"/>
<path d="M14.3032 8.04971H11.0119C10.8088 8.04971 10.6478 8.21428 10.6478 8.41386V10.6092C10.6478 10.8123 10.8123 10.9734 11.0119 10.9734H14.3032C14.5063 10.9734 14.6674 10.8088 14.6674 10.6092V8.41386C14.6674 8.21428 14.5028 8.04971 14.3032 8.04971Z" fill="#737E99"/>
<path d="M14.3032 12.0728H11.0119C10.8088 12.0728 10.6478 12.2374 10.6478 12.437V14.6359C10.6478 14.8389 10.8123 15 11.0119 15H14.3032C14.5063 15 14.6674 14.8354 14.6674 14.6359V12.4405C14.6674 12.2374 14.5028 12.0728 14.3032 12.0728Z" fill="#737E99"/>
<path d="M8.99512 4.0231H0.39918C0.196099 4.0231 0.0350342 4.18767 0.0350342 4.38725V10.6092C0.0350342 10.8123 0.1996 10.9734 0.39918 10.9734H8.99862C9.2017 10.9734 9.36277 10.8088 9.36277 10.6092V4.39075C9.36277 4.18767 9.1982 4.0231 8.99512 4.0231Z" fill="#737E99"/>
<path d="M0.364146 13.1723H5.92437C6.12745 13.1723 6.28852 13.0077 6.28852 12.8081C6.28852 12.6085 6.12395 12.444 5.92437 12.444H0.364146C0.161064 12.444 0 12.6085 0 12.8081C0 13.0077 0.161064 13.1723 0.364146 13.1723Z" fill="#737E99"/>
<path d="M8.85154 14.2682H0.364146C0.161064 14.2682 0 14.4328 0 14.6323C0 14.8319 0.164566 14.9965 0.364146 14.9965H8.85154C9.05462 14.9965 9.21569 14.8319 9.21569 14.6323C9.21569 14.4328 9.05112 14.2682 8.85154 14.2682Z" fill="#737E99"/>
</g>
<defs>
<clipPath id="clip0">
<rect width="14.6674" height="15" fill="white"/>
</clipPath>
</defs>
</svg>
