<svg width="15" height="15" viewBox="0 0 15 15" fill="none" xmlns="http://www.w3.org/2000/svg">
<g clip-path="url(#clip0)">
<path d="M7.50027 0C3.36476 0 0 3.36476 0 7.50027C0 11.6358 3.36476 15.0005 7.50027 15.0005C11.6358 15.0005 15.0005 11.6358 15.0005 7.50027C15.0005 3.36476 11.6358 0 7.50027 0ZM7.50027 12.6926C7.02268 12.6926 6.63488 12.3048 6.63488 11.8272C6.63488 11.3497 7.02268 10.9619 7.50027 10.9619C7.97786 10.9619 8.36567 11.3497 8.36567 11.8272C8.36567 12.3048 7.97786 12.6926 7.50027 12.6926ZM9.22024 7.68254C8.46573 8.26182 8.36513 8.7962 8.36513 9.51935C8.36513 9.99694 7.97732 10.3847 7.49973 10.3847C7.02214 10.3847 6.63434 9.99694 6.63434 9.51935C6.63434 8.25262 7.01619 7.19197 8.16554 6.30927C8.47114 6.07507 8.65341 5.69322 8.65341 5.28919C8.65341 4.59903 8.13525 4.03977 7.49973 4.03977C6.86421 4.03977 6.34605 4.60066 6.34605 5.28919C6.34605 5.76678 5.95825 6.15458 5.48066 6.15458C5.00307 6.15458 4.61526 5.76678 4.61526 5.2881C4.61526 3.64494 5.91011 2.3079 7.49973 2.3079C9.08935 2.3079 10.3847 3.64494 10.3847 5.2881C10.3847 6.2276 9.94988 7.12166 9.22024 7.68254Z" fill="#737E99"/>
</g>
<defs>
<clipPath id="clip0">
<rect width="15" height="15" fill="white"/>
</clipPath>
</defs>
</svg>
