<svg width="15" height="15" viewBox="0 0 15 15" fill="none" xmlns="http://www.w3.org/2000/svg">
<path d="M7.5 15C11.6421 15 15 11.6421 15 7.5C15 3.35786 11.6421 0 7.5 0C3.35786 0 0 3.35786 0 7.5C0 11.6421 3.35786 15 7.5 15Z" fill="#737E99"/>
<path d="M6.24316 9.36914L2.92676 7.9248V7.125L6.24316 5.68945V6.62988L3.92871 7.51465L6.24316 8.43164V9.36914Z" fill="white"/>
<path d="M6.55078 10.002L7.74902 4.99805H8.44629L7.2334 10.002H6.55078Z" fill="white"/>
<path d="M8.75391 9.37207V8.4375L11.0713 7.52637L8.75391 6.62402V5.69531L12.0762 7.13086V7.92188L8.75391 9.37207Z" fill="white"/>
</svg>
