<svg width="15" height="15" viewBox="0 0 15 15" fill="none" xmlns="http://www.w3.org/2000/svg">
<g clip-path="url(#clip0)">
<path d="M14.5342 5.55468C13.9893 5.09472 13.1514 5.15038 12.6768 5.71581L12.3926 6.05273L14.4111 7.74609L14.6836 7.40917C15.1524 6.85546 15.0938 6.02343 14.5342 5.55468Z" fill="#737E99"/>
<path d="M8.83008 10.2686L8.68067 10.4473C8.54883 10.6025 8.45508 10.79 8.40821 10.9893L7.99805 12.6973C7.95996 12.8584 8.01563 13.0283 8.14453 13.1367C8.26758 13.2422 8.44336 13.2715 8.60157 13.2041L10.2158 12.5039C10.4033 12.4219 10.5703 12.2988 10.6992 12.1436L10.8486 11.9648L8.83008 10.2686Z" fill="#737E99"/>
<path d="M11.8271 6.72363L9.39551 9.59766L11.417 11.2939L13.8457 8.41992L11.8271 6.72363Z" fill="#737E99"/>
<path d="M11.0156 1.94824L9.3457 0.363281C9.1875 0.213867 8.99414 0.125976 8.78906 0.0673828V2.63671H11.3994C11.3438 2.37597 11.2119 2.13281 11.0156 1.94824Z" fill="#737E99"/>
<path d="M7.55273 10.7842C7.63184 10.4561 7.78711 10.1455 8.00391 9.88477L11.4258 5.83594V3.51562H8.34961C8.10645 3.51562 7.91016 3.31934 7.91016 3.07617V0H1.31836C0.591797 0 0 0.591797 0 1.31836V13.6816C0 14.4082 0.591797 15 1.31836 15H10.1074C10.834 15 11.4258 14.4082 11.4258 13.6816V12.6416L11.3701 12.709C11.1533 12.9668 10.875 13.1748 10.5645 13.3096L8.9502 14.0098C8.49609 14.2061 7.96875 14.1357 7.5791 13.8105C7.19531 13.4883 7.02832 12.9844 7.14258 12.4951L7.55273 10.7842ZM2.19727 2.63672H6.5918C6.83496 2.63672 7.03125 2.83301 7.03125 3.07617C7.03125 3.31934 6.83496 3.51562 6.5918 3.51562H2.19727C1.9541 3.51562 1.75781 3.31934 1.75781 3.07617C1.75781 2.83301 1.9541 2.63672 2.19727 2.63672ZM2.19727 5.30273H9.22852C9.47168 5.30273 9.66797 5.49902 9.66797 5.74219C9.66797 5.98535 9.47168 6.18164 9.22852 6.18164H2.19727C1.9541 6.18164 1.75781 5.98535 1.75781 5.74219C1.75781 5.49902 1.9541 5.30273 2.19727 5.30273ZM5.71289 11.4551H2.19727C1.9541 11.4551 1.75781 11.2588 1.75781 11.0156C1.75781 10.7725 1.9541 10.5762 2.19727 10.5762H5.71289C5.95605 10.5762 6.15234 10.7725 6.15234 11.0156C6.15234 11.2588 5.95605 11.4551 5.71289 11.4551ZM2.19727 8.81836C1.9541 8.81836 1.75781 8.62207 1.75781 8.37891C1.75781 8.13574 1.9541 7.93945 2.19727 7.93945H7.4707C7.71387 7.93945 7.91016 8.13574 7.91016 8.37891C7.91016 8.62207 7.71387 8.81836 7.4707 8.81836H2.19727Z" fill="#737E99"/>
</g>
<defs>
<clipPath id="clip0">
<rect width="14.9985" height="15" fill="white"/>
</clipPath>
</defs>
</svg>
