<svg width="89" height="102" viewBox="0 0 89 102" fill="none" xmlns="http://www.w3.org/2000/svg">
<path d="M32.7835 100.537C32.7835 100.537 14.2745 39.7057 35.6809 15.3113C51.7145 -2.90699 69.886 -0.735462 78.0435 1.52067C82.3191 2.64874 85.8634 5.60991 87.7481 9.61454C90.5891 15.7625 90.0828 25.7741 69.9985 37.4214C36.356 56.9369 34.2744 83.7285 34.2744 83.7285L32.7835 100.537Z" fill="#0F94D6"/>
<path d="M75.1462 10.1782C75.1462 10.1782 20.5755 27.2966 32.8117 100.565" stroke="white" stroke-width="0.5" stroke-miterlimit="10"/>
<path d="M43.2758 16.2979C43.2758 16.2979 50.7863 21.3741 48.3953 29.0168" stroke="white" stroke-width="0.5" stroke-miterlimit="10"/>
<path d="M69.6611 20.8386C69.6611 20.8386 65.076 16.1571 59.4783 18.7516" stroke="white" stroke-width="0.5" stroke-miterlimit="10"/>
<path d="M48.0859 44.3874C48.0859 44.3874 40.0128 40.2982 37.9312 45.4309" stroke="white" stroke-width="0.5" stroke-miterlimit="10"/>
<path d="M28.1423 52.9319C28.1423 52.9319 34.2182 52.4524 34.3026 55.3572" stroke="white" stroke-width="0.5" stroke-miterlimit="10"/>
<path d="M32.0522 101.044C32.0522 101.044 53.7398 56.8241 59.6751 57.7829C62.5161 58.2342 63.8101 61.0261 64.4008 63.8463C65.1322 67.4561 64.7102 71.2351 63.2194 74.6193C60.1533 81.6697 51.8833 95.1219 32.0522 101.044Z" fill="#0F94D6"/>
<path d="M59.5064 66.187C59.5064 66.187 36.7499 99.2675 32.3617 100.734" stroke="white" stroke-width="0.5" stroke-miterlimit="10"/>
<path d="M61.6161 71.3477H56.2997" stroke="white" stroke-width="0.5" stroke-miterlimit="10"/>
<path d="M55.2589 83.4463L46.9326 83.7838" stroke="white" stroke-width="0.5" stroke-miterlimit="10"/>
<path d="M50.1956 73.7451L51.0957 78.1164" stroke="white" stroke-width="0.5" stroke-miterlimit="10"/>
<path d="M41.3348 87L41.5036 90.9482" stroke="white" stroke-width="0.5" stroke-miterlimit="10"/>
<path d="M32.6992 101.044C32.6992 101.044 11.0116 56.8241 5.07629 57.7829C2.23524 58.2342 0.913165 61.0261 0.35058 63.8463C-0.38078 67.4561 0.0411584 71.2351 1.53201 74.6193C4.59809 81.6697 12.8681 95.1219 32.6992 101.044Z" fill="#0F94D6"/>
<path d="M5.21692 66.187C5.21692 66.187 27.9735 99.2675 32.3616 100.734" stroke="white" stroke-width="0.5" stroke-miterlimit="10"/>
<path d="M3.13538 71.3477H8.4518" stroke="white" stroke-width="0.5" stroke-miterlimit="10"/>
<path d="M9.49255 83.4463L17.8188 83.7838" stroke="white" stroke-width="0.5" stroke-miterlimit="10"/>
<path d="M14.5559 73.7451L13.6558 78.1164" stroke="white" stroke-width="0.5" stroke-miterlimit="10"/>
<path d="M23.4166 87L23.2478 90.9482" stroke="white" stroke-width="0.5" stroke-miterlimit="10"/>
</svg>
