<svg width="37" height="37" viewBox="0 0 37 37" fill="none" xmlns="http://www.w3.org/2000/svg">
<path d="M35.7227 5.35919V34.1237C35.7227 35.2947 34.7783 36.244 33.6133 36.244H2.88672C1.72171 36.244 0.777344 35.2947 0.777344 34.1237V5.35919H35.7227Z" fill="#EAF8FF"/>
<path d="M33.6133 5.35919V34.1237C33.6133 35.2947 32.6689 36.244 31.5039 36.244H33.6133C34.7783 36.244 35.7227 35.2947 35.7227 34.1237V5.35919H33.6133Z" fill="#D8ECFE"/>
<path d="M33.6133 1.11896H2.88672C1.72171 1.11896 0.777344 2.06819 0.777344 3.2392V5.35944H35.7227V3.2392C35.7227 2.06819 34.7783 1.11896 33.6133 1.11896Z" fill="#3F6E90"/>
<path d="M33.6133 1.11896H31.5039C32.6689 1.11896 33.6133 2.06819 33.6133 3.2392V5.35944H35.7227V3.2392C35.7227 2.06819 34.7783 1.11896 33.6133 1.11896Z" fill="#355F7F"/>
<path d="M18.25 29.2878C24.2354 29.2878 29.0876 24.4107 29.0876 18.3944C29.0876 12.3782 24.2354 7.5011 18.25 7.5011C12.2646 7.5011 7.41248 12.3782 7.41248 18.3944C7.41248 24.4107 12.2646 29.2878 18.25 29.2878Z" fill="white"/>
<path d="M23.0174 24.0503L21.074 23.637L19.6372 23.5558C19.1421 23.4505 18.7879 23.0112 18.7879 22.5026V20.2462H17.7123V22.5026C17.7123 23.0112 17.358 23.4505 16.863 23.5558L15.4262 23.637L13.4828 24.0503C12.2332 24.3161 11.2831 25.2909 11.0128 26.5022C12.9317 28.2339 15.4683 29.2878 18.2502 29.2878C21.032 29.2878 23.5686 28.2339 25.4875 26.5022C25.2171 25.2909 24.2669 24.3161 23.0174 24.0503Z" fill="#80D3FD"/>
<path d="M15.4262 23.6363C16.0315 24.5568 17.07 25.1644 18.2501 25.1644C19.4303 25.1644 20.4686 24.5568 21.074 23.6363L19.6373 23.5551C19.1421 23.4498 18.7879 23.0106 18.7879 22.5021V20.2462H16.6576V22.5021C16.6576 23.0106 16.3034 23.4499 15.8083 23.5551L15.4262 23.6363Z" fill="#BFEAFF"/>
<path d="M18.5825 24.6159L19.6764 24.8486C20.2463 24.5816 20.7301 24.1601 21.074 23.6371L21.0584 23.6337L20.6919 23.5558C20.1968 23.4505 19.8426 23.0112 19.8426 22.5026V20.2462H17.7332V23.5627C17.7332 24.0714 18.0874 24.5106 18.5825 24.6159Z" fill="#BFEAFF"/>
<path d="M22.3191 16.5165H14.181V11.8219C14.181 10.9301 14.9003 10.2072 15.7875 10.2072H20.7128C21.5999 10.2072 22.319 10.93 22.319 11.8216V16.5165H22.3191Z" fill="#74BDE1"/>
<path d="M22.319 15.3289C21.9708 15.228 21.3979 15.0136 20.8198 14.5437C20.3125 14.1312 19.9935 13.6783 19.8022 13.3447C19.7441 13.2434 19.609 13.2204 19.5216 13.2974C19.1366 13.6364 18.6533 13.9985 18.0622 14.3228C16.5167 15.1708 15.042 15.3169 14.181 15.3289V17.9498C14.181 19.6491 15.2017 21.1076 16.6575 21.7337C17.1466 21.9441 18.2226 21.8401 18.2226 21.8401C18.7844 21.8401 19.347 21.9454 19.8338 21.7374C21.2942 21.1134 22.319 19.6525 22.319 17.9498V15.3289H22.319Z" fill="white"/>
<path d="M22.8164 17.2693H22.319V15.3289H22.8164C23.3481 15.3289 23.7792 15.7621 23.7792 16.2966V16.3015C23.7792 16.8361 23.3481 17.2693 22.8164 17.2693Z" fill="#FFCEBF"/>
<path d="M13.6836 17.2693H14.181V15.3289H13.6836C13.1518 15.3289 12.7208 15.7621 12.7208 16.2966V16.3015C12.7208 16.8361 13.1518 17.2693 13.6836 17.2693Z" fill="#FFB09E"/>
<path d="M20.2131 17.8473C20.5044 17.8473 20.7405 17.6099 20.7405 17.3172V16.5239C20.7405 16.2312 20.5044 15.9938 20.2131 15.9938C19.9219 15.9938 19.6858 16.2312 19.6858 16.5239V17.3172C19.6858 17.6099 19.9219 17.8473 20.2131 17.8473ZM16.2867 15.9938C15.9955 15.9938 15.7594 16.2312 15.7594 16.5239V17.3172C15.7594 17.6099 15.9955 17.8473 16.2867 17.8473C16.578 17.8473 16.8141 17.6099 16.8141 17.3172V16.5239C16.8141 16.2312 16.578 15.9938 16.2867 15.9938ZM31.4245 33.5936H8.00455C7.71332 33.5936 7.47721 33.831 7.47721 34.1237C7.47721 34.4164 7.71332 34.6538 8.00455 34.6538H31.4245C31.7157 34.6538 31.9518 34.4164 31.9518 34.1237C31.9518 33.831 31.7157 33.5936 31.4245 33.5936ZM8.00455 32.1184H22.478C22.7692 32.1184 23.0053 31.8811 23.0053 31.5884C23.0053 31.2957 22.7692 31.0583 22.478 31.0583H8.00455C7.71332 31.0583 7.47721 31.2957 7.47721 31.5884C7.47721 31.8811 7.71332 32.1184 8.00455 32.1184ZM24.4116 31.5884C24.4116 31.8811 24.6477 32.1184 24.9389 32.1184H31.4245C31.7157 32.1184 31.9518 31.8811 31.9518 31.5884C31.9518 31.2957 31.7157 31.0583 31.4245 31.0583H24.9389C24.6477 31.0583 24.4116 31.2957 24.4116 31.5884ZM5.07555 34.6538C5.36678 34.6538 5.60289 34.4164 5.60289 34.1237C5.60289 33.831 5.36678 33.5936 5.07555 33.5936C4.78431 33.5936 4.5482 33.831 4.5482 34.1237C4.5482 34.4164 4.78431 34.6538 5.07555 34.6538ZM7.44705 2.70886C7.15581 2.70886 6.9197 2.94618 6.9197 3.23892C6.9197 3.53165 7.15581 3.76898 7.44705 3.76898C7.73828 3.76898 7.97439 3.53165 7.97439 3.23892C7.97439 2.94618 7.73828 2.70886 7.44705 2.70886ZM33.6133 0.588623H2.88672C1.4328 0.588623 0.25 1.77751 0.25 3.23892V34.1237C0.25 35.5851 1.4328 36.774 2.88672 36.774H33.6133C35.0672 36.774 36.25 35.5851 36.25 34.1237V3.23892C36.25 1.77751 35.0672 0.588623 33.6133 0.588623ZM35.1953 34.1237C35.1953 35.0005 34.4856 35.7139 33.6133 35.7139H2.88672C2.01435 35.7139 1.30469 35.0005 1.30469 34.1237V5.88921H35.1953V34.1237ZM35.1953 4.8291H1.30469V3.23892C1.30469 2.36206 2.01435 1.64874 2.88672 1.64874H33.6133C34.4856 1.64874 35.1953 2.36206 35.1953 3.23892V4.8291ZM5.33767 2.70886C5.04644 2.70886 4.81033 2.94618 4.81033 3.23892C4.81033 3.53165 5.04644 3.76898 5.33767 3.76898C5.62891 3.76898 5.86502 3.53165 5.86502 3.23892C5.86502 2.94618 5.62891 2.70886 5.33767 2.70886ZM5.07555 32.1184C5.36678 32.1184 5.60289 31.8811 5.60289 31.5884C5.60289 31.2957 5.36678 31.0583 5.07555 31.0583C4.78431 31.0583 4.5482 31.2957 4.5482 31.5884C4.5482 31.8812 4.78431 32.1184 5.07555 32.1184ZM18.25 29.8179C24.4355 29.8179 29.6149 24.6879 29.6149 18.3945C29.6149 12.0956 24.5166 6.9711 18.25 6.9711C16.9214 6.9711 15.6198 7.19952 14.3814 7.65007C14.1075 7.74972 13.9659 8.05362 14.065 8.3289C14.1641 8.60418 14.4663 8.74666 14.7404 8.64693C15.8632 8.23836 17.0441 8.03122 18.2499 8.03122C23.935 8.03122 28.5601 12.6802 28.5601 18.3945C28.5601 21.1648 27.473 23.6846 25.7052 25.5458C25.2043 24.529 24.2598 23.773 23.1263 23.5319L20.8011 23.0372C20.5512 22.984 20.3699 22.7592 20.3699 22.5027V22.0655C21.8399 21.2904 22.8463 19.737 22.8463 17.9499V17.798C23.6541 17.7818 24.3065 17.1174 24.3065 16.2967C24.3065 15.481 23.6541 14.8167 22.8463 14.8004V11.8216C22.8463 10.6391 21.8892 9.67709 20.7127 9.67709H15.7874C14.6108 9.67709 13.6536 10.6392 13.6536 11.822V14.8005C12.8458 14.8168 12.1934 15.4811 12.1934 16.3017C12.1934 17.1175 12.8458 17.7818 13.6536 17.798V17.9499C13.6536 19.7371 14.66 21.2905 16.1301 22.0656V22.5027C16.1301 22.7592 15.9487 22.984 15.6989 23.0372L13.3737 23.5319C12.2401 23.773 11.2957 24.529 10.7947 25.5458C9.0269 23.6846 7.9398 21.1647 7.9398 18.3945C7.9398 14.8825 9.6884 11.6371 12.6173 9.71299C12.861 9.55284 12.9295 9.22435 12.7702 8.97932C12.6109 8.73422 12.2839 8.66531 12.0403 8.8256C8.81231 10.9462 6.88511 14.5234 6.88511 18.3945C6.88511 24.6904 12.0754 29.8179 18.25 29.8179ZM22.8463 15.8601C23.0725 15.8757 23.2519 16.0658 23.2519 16.3017C23.2519 16.5329 23.0726 16.7228 22.8463 16.7384V15.8601ZM13.6536 16.7384C13.4274 16.7228 13.248 16.5327 13.248 16.2967C13.248 16.0655 13.4273 15.8756 13.6536 15.86V16.7384ZM14.7083 11.8219C14.7083 11.2238 15.1924 10.7371 15.7874 10.7371H20.7127C21.3076 10.7371 21.7916 11.2236 21.7916 11.8216V14.5509C21.5655 14.434 21.3514 14.2943 21.1514 14.1316C20.7918 13.8393 20.4916 13.4855 20.259 13.0801C20.1521 12.8936 19.9696 12.7664 19.7586 12.7312C19.5478 12.6961 19.3347 12.7572 19.174 12.8987C18.7537 13.2688 18.2946 13.5915 17.8095 13.8576C16.871 14.3725 15.8083 14.6848 14.7083 14.7731V11.8219ZM14.7083 17.9499V15.8369C15.9854 15.7461 17.2227 15.3874 18.3148 14.7883C18.7517 14.5485 19.17 14.2687 19.5623 13.9541C19.8222 14.3309 20.1324 14.6668 20.4881 14.956C20.8833 15.2773 21.3204 15.5301 21.7916 15.7104V17.9499C21.7916 19.9243 20.2029 21.5306 18.2499 21.5306C16.2971 21.5305 14.7083 19.9243 14.7083 17.9499ZM20.1467 23.9096C19.6301 24.372 18.9595 24.6354 18.25 24.6354C17.5405 24.6354 16.8699 24.3719 16.3533 23.9096C16.853 23.6324 17.1848 23.0971 17.1848 22.5027V22.4635C17.5269 22.5458 17.8832 22.5906 18.2499 22.5906C18.6167 22.5906 18.973 22.5457 19.3152 22.4634V22.5026C19.3152 23.0971 19.647 23.6324 20.1467 23.9096ZM13.592 24.5691L15.2039 24.2261C15.9435 25.1515 17.0564 25.6955 18.25 25.6955C19.4436 25.6955 20.5565 25.1515 21.2961 24.2261L22.9081 24.5691C23.8313 24.7654 24.5788 25.4378 24.8859 26.3192C23.0913 27.8399 20.7755 28.7578 18.25 28.7578C15.7245 28.7578 13.4087 27.8398 11.6141 26.3192C11.9212 25.4378 12.6687 24.7654 13.592 24.5691ZM3.2283 2.70886C2.93706 2.70886 2.70095 2.94618 2.70095 3.23892C2.70095 3.53165 2.93706 3.76898 3.2283 3.76898C3.51953 3.76898 3.75564 3.53165 3.75564 3.23892C3.75564 2.94618 3.51953 2.70886 3.2283 2.70886ZM19.2898 20.5075C19.5448 20.3663 19.6377 20.0438 19.4971 19.7875C19.3564 19.5312 19.0357 19.4377 18.7807 19.5792C18.6649 19.6433 18.4777 19.7182 18.2385 19.7168C18.0103 19.7144 17.8302 19.6406 17.7192 19.5791C17.4641 19.4378 17.1434 19.5311 17.0029 19.7875C16.8623 20.0439 16.9551 20.3663 17.2102 20.5075C17.5281 20.6836 17.8882 20.7769 18.2501 20.7769C18.7067 20.7769 19.0668 20.631 19.2898 20.5075Z" fill="black"/>
</svg>
