<svg width="40" height="35" viewBox="0 0 40 35" fill="none" xmlns="http://www.w3.org/2000/svg">
<path d="M39.966 1.97258C39.966 1.25299 39.3892 0.704773 38.7107 0.704773H3.29097C2.57846 0.704773 2.03564 1.28724 2.03564 1.97258V6.39264H40V1.97258H39.966Z" fill="#4F5565"/>
<path d="M5.80115 4.43964C6.30712 4.43964 6.71729 4.02545 6.71729 3.51453C6.71729 3.0036 6.30712 2.58942 5.80115 2.58942C5.29518 2.58942 4.88501 3.0036 4.88501 3.51453C4.88501 4.02545 5.29518 4.43964 5.80115 4.43964Z" fill="#F0582F"/>
<path d="M8.85498 4.43964C9.36088 4.43964 9.771 4.02545 9.771 3.51453C9.771 3.0036 9.36088 2.58942 8.85498 2.58942C8.34908 2.58942 7.93896 3.0036 7.93896 3.51453C7.93896 4.02545 8.34908 4.43964 8.85498 4.43964Z" fill="#FBD303"/>
<path d="M11.9421 4.43964C12.448 4.43964 12.8582 4.02545 12.8582 3.51453C12.8582 3.0036 12.448 2.58942 11.9421 2.58942C11.4362 2.58942 11.0261 3.0036 11.0261 3.51453C11.0261 4.02545 11.4362 4.43964 11.9421 4.43964Z" fill="#71D456"/>
<path d="M33.4179 2.58942H16.5222C16.0133 2.58942 15.6062 3.00059 15.6062 3.51453C15.6062 4.02847 16.0133 4.43964 16.5222 4.43964H33.4179C33.9268 4.43964 34.334 4.02847 34.334 3.51453C34.334 3.03484 33.9268 2.58942 33.4179 2.58942Z" fill="#333842"/>
<path d="M2.03564 6.3927V32.6941C2.03564 33.5185 2.61238 34.1466 3.29097 34.1466H38.7107C39.4233 34.1466 39.9661 33.4793 39.9661 32.6941V6.3927H2.03564Z" fill="#F0F2F7"/>
<path d="M21.0007 20.7498C24.261 20.7498 26.9041 18.0805 26.9041 14.7877C26.9041 11.495 24.261 8.82568 21.0007 8.82568C17.7404 8.82568 15.0974 11.495 15.0974 14.7877C15.0974 18.0805 17.7404 20.7498 21.0007 20.7498Z" fill="#00AAFF"/>
<path d="M21.0007 14.0336C22.1625 14.0336 23.1042 13.0825 23.1042 11.9092C23.1042 10.736 22.1625 9.78485 21.0007 9.78485C19.839 9.78485 18.8972 10.736 18.8972 11.9092C18.8972 13.0825 19.839 14.0336 21.0007 14.0336Z" fill="#FCFCFD"/>
<path d="M21.0004 20.7494C22.7646 20.7494 24.3591 19.9613 25.4448 18.7279C25.3431 16.3295 23.4093 14.4107 21.0004 14.4107C18.5915 14.4107 16.6578 16.3295 16.5559 18.7279C17.6415 19.9613 19.2362 20.7494 21.0004 20.7494Z" fill="#FCFCFD"/>
<path d="M25.4109 22.8055H16.5559V24.0393H25.4109V22.8055Z" fill="#646B79"/>
<path d="M23.1382 25.6837H18.8972V26.9174H23.1382V25.6837Z" fill="#646B79"/>
<path d="M10.5852 8.82568H0V24.4503H10.5852V8.82568Z" fill="#DFE3E6"/>
<path fill-rule="evenodd" clip-rule="evenodd" d="M1.56055 10.4016H5.90308V11.3615H1.56055V10.4016ZM1.5603 12.6976H8.99048V13.658H1.5603V12.6976ZM8.99023 15.0276H1.5603V15.988H8.99023V15.0276ZM1.5603 17.3233H8.99023V18.2838H1.5603V17.3233ZM8.99023 19.619H1.5603V20.5792H8.99023V19.619ZM1.5603 21.9489H8.99023V22.9092H1.5603V21.9489Z" fill="white"/>
</svg>
