<svg width="24" height="24" viewBox="0 0 24 24" fill="none" xmlns="http://www.w3.org/2000/svg">
<path d="M16.5 3H7.50001C7.02262 3 6.56479 3.18964 6.22722 3.52721C5.88965 3.86477 5.70001 4.32261 5.70001 4.8V20.1C5.70001 20.3387 5.79483 20.5676 5.96362 20.7364C6.1324 20.9052 6.36132 21 6.60001 21H17.4C17.6387 21 17.8676 20.9052 18.0364 20.7364C18.2052 20.5676 18.3 20.3387 18.3 20.1V4.8C18.3 4.32261 18.1104 3.86477 17.7728 3.52721C17.4352 3.18964 16.9774 3 16.5 3ZM11.1 15.6H8.40001V13.8H11.1V15.6ZM11.1 12H8.40001V10.2H11.1V12ZM11.1 8.4H8.40001V6.6H11.1V8.4ZM15.6 15.6H12.9V13.8H15.6V15.6ZM15.6 12H12.9V10.2H15.6V12ZM15.6 8.4H12.9V6.6H15.6V8.4Z" fill="white"/>
</svg>
