<svg width="16" height="15" viewBox="0 0 16 15" fill="none" xmlns="http://www.w3.org/2000/svg">
<path d="M14 2.5H11V1.5C11 0.671562 10.3284 0 9.5 0H6.5C5.67156 0 5 0.671562 5 1.5V2.5H2C0.895625 2.5 0 3.39562 0 4.5V6.5H16V4.5C16 3.39562 15.1044 2.5 14 2.5ZM6 1.5C6 1.22406 6.22406 1 6.5 1H9.5C9.77594 1 10 1.22406 10 1.5V2.5H6V1.5Z" fill="#737E99"/>
<path d="M11 7.5V10C11 10.8284 10.3284 11.5 9.5 11.5H6.5C5.67156 11.5 5 10.8284 5 10V7.5H0.5V13C0.5 14.1044 1.39562 15 2.5 15H13.5C14.6044 15 15.5 14.1044 15.5 13V7.5H11Z" fill="#737E99"/>
</svg>
