<?xml version="1.0" encoding="utf-8"?>
<!-- Generator: Adobe Illustrator 24.0.1, SVG Export Plug-In . SVG Version: 6.00 Build 0)  -->
<svg width="89px" version="1.1" id="b7755403-659e-443e-9cc8-ceaced986de6"
	 xmlns="http://www.w3.org/2000/svg" xmlns:xlink="http://www.w3.org/1999/xlink" x="0px" y="0px" viewBox="0 0 89 101"
	 style="enable-background:new 0 0 89 101;" xml:space="preserve">
<style type="text/css">
	.st0{fill:#10B3D6;}
	.st1{fill:#333366;}
	.cls-1 {
		fill: url(#linear-gradient);
	}

	.cls-2 {
	fill: #92d0ff;
	}

	.cls-3 {
	fill: url(#linear-gradient-2);
	}

	.cls-4 {
	fill: url(#linear-gradient-3);
	}
	.leaf{
	animation: 2s ease-in-out infinite leafMotion;
	-webkit-animation: 2s ease-in-out infinite leafMotion;
	-moz-animation: 2s ease-in-out infinite leafMotion;
	}
	.one{
	animation-duration: 2.3s;
	-webkit-animation-duration: 2.3s;
	-moz-animation-duration: 2.3s;
	transform-origin: 0px 200px;
	}
	.two{
	animation-duration: 2.7s;
	-webkit-animation-duration: 2.7s;
	-moz-animation-duration: 2.7s;
	transform-origin: 40px 100px;
	}
	.three{
	animation-duration: 3s;
	-webkit-animation-duration: 3s;
	-moz-animation-duration: 3s;
	transform-origin: -20px 300px;
	}
	@keyframes leafMotion {
	50% {
	transform: rotate(1deg)
	}
	}

	@-webkit-keyframes leafMotion {
	50% {
	-webkit-transform: rotate(1deg)
	}
	}

	@-moz-keyframes leafMotion {
	50% {
	-moz-transform: rotate(1deg)
	}
	}
</style>

<g>
	<g class="leaf one">
	<path class="st0" d="M32.8,100.5c0,0-18.5-60.9,2.9-85.2C51.7-3,69.9-0.8,78,1.5c4.3,1.1,7.8,4.1,9.7,8.1
		c2.8,6.2,2.3,16.2-17.8,27.8C36.4,56.9,34.3,83.7,34.3,83.7L32.8,100.5z"/>
	<path class="st1" d="M32.7,100.5c-2.8-16.7-2.3-31.9,1.5-45.1c3-10.6,8.1-19.9,15.2-27.7C61.3,14.4,75,10,75.1,10l0.1,0.3
		c-0.1,0-13.8,4.4-25.7,17.7c-11,12.2-22.8,34.8-16.5,72.5L32.7,100.5z"/>
	<path class="st1" d="M48.5,29l-0.3-0.1c2.3-7.4-5-12.5-5.1-12.6l0.2-0.2C43.4,16.2,50.9,21.4,48.5,29z"/>
	<path class="st1" d="M69.6,20.9c0,0-4.6-4.6-10-2.1l-0.1-0.3c5.6-2.6,10.3,2.1,10.3,2.1L69.6,20.9z"/>
	<path class="st1" d="M38.1,45.4l-0.3-0.1c0.5-1.1,1.3-1.9,2.4-2.3c3.2-1.2,7.8,1.1,8,1.2L48,44.5c0,0-4.7-2.4-7.8-1.2
		C39.2,43.6,38.5,44.4,38.1,45.4z"/>
	<path class="st1" d="M34.2,55.3c0-0.5-0.2-0.9-0.6-1.2c-1.5-1.4-5.4-1.1-5.4-1.1l0-0.3c0.2,0,4-0.3,5.6,1.1
		c0.4,0.4,0.7,0.9,0.7,1.4L34.2,55.3z"/>
	</g>
	
		<g class="leaf one">
		<path class="st0" d="M32.1,101c0,0,21.7-44.2,27.6-43.3c2.8,0.5,4.1,3.2,4.7,6.1c0.7,3.6,0.3,7.4-1.2,10.8
		C60.2,81.6,51.9,95.1,32.1,101z"/>
			<path class="st1" d="M32.4,100.8l-0.1-0.3c4.3-1.4,26.9-34.2,27.1-34.5l0.2,0.2C58.7,67.6,36.8,99.4,32.4,100.8z"/>
	<rect x="56.3" y="71.2" class="st1" width="5.3" height="0.3"/>
	
		<rect x="46.9" y="83.4" transform="matrix(0.9991 -4.280386e-02 4.280386e-02 0.9991 -3.5308 2.264)" class="st1" width="8.3" height="0.3"/>
	
		<rect x="50.5" y="73.7" transform="matrix(0.9791 -0.2034 0.2034 0.9791 -14.3748 11.8858)" class="st1" width="0.3" height="4.4"/>
	
		<rect x="41.3" y="87" transform="matrix(0.9992 -4.051832e-02 4.051832e-02 0.9992 -3.5693 1.7517)" class="st1" width="0.3" height="4"/>
		</g>
		<g class="leaf one">
	<path class="st0 leaf one" d="M32.7,101c0,0-21.7-44.2-27.6-43.3c-2.8,0.5-4.1,3.2-4.7,6.1c-0.7,3.6-0.3,7.4,1.2,10.8
		C4.6,81.6,12.9,95.1,32.7,101z"/>
	<path class="st1 leaf one" d="M32.3,100.8C28,99.4,6.1,67.6,5.1,66.2l0.2-0.2c0.2,0.3,22.8,33.1,27.1,34.5L32.3,100.8z"/>
	<rect x="3.1" y="71.2" class="st1" width="5.3" height="0.3"/>
	
		<rect x="13.5" y="79.4" transform="matrix(4.300844e-02 -0.9991 0.9991 4.300844e-02 -70.4262 93.6425)" class="st1" width="0.3" height="8.3"/>
	<rect x="11.9" y="75.8" transform="matrix(0.2038 -0.979 0.979 0.2038 -63.0592 74.2464)" class="st1" width="4.4" height="0.3"/>
	
		<rect x="21.4" y="88.8" transform="matrix(4.114124e-02 -0.9992 0.9992 4.114124e-02 -66.4737 108.595)" class="st1" width="4" height="0.3"/>
		</g>
</g>
</svg>
