<svg width="34" height="41" viewBox="0 0 34 41" fill="none" xmlns="http://www.w3.org/2000/svg">
<path d="M25.9911 40.1944H2.19629C1.46265 40.1944 0.868164 39.5969 0.868164 38.8594V5.65344C0.868164 4.91602 1.46265 4.31848 2.19629 4.31848H25.9911C26.7247 4.31848 27.3192 4.91602 27.3192 5.65344V38.8594C27.3192 39.5969 26.7247 40.1944 25.9911 40.1944Z" fill="#D5F1FF"/>
<path d="M18.5623 6.64117H9.62513C9.19361 6.64117 8.84387 6.28964 8.84387 5.8559V3.05286C8.84387 2.01207 9.68342 1.16821 10.7189 1.16821H17.4685C18.504 1.16821 19.3435 2.01207 19.3435 3.05286V5.8559C19.3435 6.28964 18.9938 6.64117 18.5623 6.64117Z" fill="#18AFFB"/>
<path d="M32.1223 13.5532C32.1223 17.3657 29.0477 20.4562 25.2546 20.4562C21.4619 20.4562 18.387 17.3657 18.387 13.5532C18.387 9.74092 21.4619 6.65015 25.2546 6.65015C29.0477 6.65015 32.1223 9.74092 32.1223 13.5532Z" fill="#18AFFB"/>
<path d="M24.8937 16.5943C24.5378 16.5943 24.1963 16.4523 23.9449 16.1995L20.6593 12.897C20.1354 12.3703 20.1354 11.5164 20.6593 10.9897C21.1833 10.463 22.0329 10.463 22.5569 10.9897L24.8937 13.3385L30.9645 7.23627C31.4882 6.70957 32.3381 6.70957 32.8618 7.23627C33.3861 7.76296 33.3861 8.61695 32.8618 9.14364L25.8424 16.1995C25.5907 16.4523 25.2495 16.5943 24.8937 16.5943Z" fill="white"/>
<path d="M16.253 16.5637H9.10242C8.77832 16.5637 8.51587 16.2997 8.51587 15.9741C8.51587 15.6485 8.77832 15.3845 9.10242 15.3845H16.253C16.5771 15.3845 16.8398 15.6485 16.8398 15.9741C16.8398 16.2997 16.5771 16.5637 16.253 16.5637Z" fill="#0882BF"/>
<path d="M7.98235 10.4751H4.03364C3.70954 10.4751 3.44678 10.2111 3.44678 9.88544C3.44678 9.55979 3.70954 9.29578 4.03364 9.29578H7.98235C8.30645 9.29578 8.56921 9.55979 8.56921 9.88544C8.56921 10.2111 8.30645 10.4751 7.98235 10.4751Z" fill="#0882BF"/>
<path d="M16.253 19.2999H9.10242C8.77832 19.2999 8.51587 19.0359 8.51587 18.7102C8.51587 18.3849 8.77832 18.1209 9.10242 18.1209H16.253C16.5771 18.1209 16.8398 18.3849 16.8398 18.7102C16.8398 19.0359 16.5771 19.2999 16.253 19.2999Z" fill="#0882BF"/>
<path d="M18.723 23.7177H9.10241C8.77832 23.7177 8.51587 23.4537 8.51587 23.1281C8.51587 22.8024 8.77832 22.5384 9.10241 22.5384H18.723C19.0471 22.5384 19.3098 22.8024 19.3098 23.1281C19.3098 23.4537 19.0471 23.7177 18.723 23.7177Z" fill="#0882BF"/>
<path d="M13.9128 26.4542H9.10241C8.77832 26.4542 8.51587 26.1902 8.51587 25.8646C8.51587 25.5389 8.77832 25.2749 9.10241 25.2749H13.9128C14.2369 25.2749 14.4994 25.5389 14.4994 25.8646C14.4994 26.1902 14.2369 26.4542 13.9128 26.4542Z" fill="#0882BF"/>
<path d="M16.253 30.8794H9.10242C8.77832 30.8794 8.51587 30.6154 8.51587 30.2897C8.51587 29.964 8.77832 29.7 9.10242 29.7H16.253C16.5771 29.7 16.8398 29.964 16.8398 30.2897C16.8398 30.6154 16.5771 30.8794 16.253 30.8794Z" fill="#0882BF"/>
<path d="M18.723 33.6155H9.10241C8.77832 33.6155 8.51587 33.3515 8.51587 33.0258C8.51587 32.7005 8.77832 32.4365 9.10241 32.4365H18.723C19.0471 32.4365 19.3098 32.7005 19.3098 33.0258C19.3098 33.3515 19.0471 33.6155 18.723 33.6155Z" fill="#0882BF"/>
<path d="M7.0625 17.2556C7.0625 18.2458 6.26416 19.0482 5.27905 19.0482C4.29425 19.0482 3.49561 18.2458 3.49561 17.2556C3.49561 16.2657 4.29425 15.463 5.27905 15.463C6.26416 15.463 7.0625 16.2657 7.0625 17.2556Z" fill="#18AFFB"/>
<path d="M7.0625 24.4966C7.0625 25.4865 6.26416 26.2889 5.27905 26.2889C4.29425 26.2889 3.49561 25.4865 3.49561 24.4966C3.49561 23.5065 4.29425 22.704 5.27905 22.704C6.26416 22.704 7.0625 23.5065 7.0625 24.4966Z" fill="#18AFFB"/>
<path d="M7.0625 31.658C7.0625 32.6479 6.26416 33.4507 5.27905 33.4507C4.29425 33.4507 3.49561 32.6479 3.49561 31.658C3.49561 30.6678 4.29425 29.8654 5.27905 29.8654C6.26416 29.8654 7.0625 30.6678 7.0625 31.658Z" fill="#18AFFB"/>
<path d="M16.253 16.5637H9.10242C8.77832 16.5637 8.51587 16.2997 8.51587 15.9741C8.51587 15.6485 8.77832 15.3845 9.10242 15.3845H16.253C16.5771 15.3845 16.8398 15.6485 16.8398 15.9741C16.8398 16.2997 16.5771 16.5637 16.253 16.5637Z" fill="#1D2B54"/>
<path d="M7.98235 10.4751H4.03364C3.70954 10.4751 3.44678 10.2111 3.44678 9.88544C3.44678 9.55979 3.70954 9.29578 4.03364 9.29578H7.98235C8.30645 9.29578 8.56921 9.55979 8.56921 9.88544C8.56921 10.2111 8.30645 10.4751 7.98235 10.4751Z" fill="#1D2B54"/>
<path d="M16.253 19.2999H9.10242C8.77832 19.2999 8.51587 19.0359 8.51587 18.7102C8.51587 18.3849 8.77832 18.1209 9.10242 18.1209H16.253C16.5771 18.1209 16.8398 18.3849 16.8398 18.7102C16.8398 19.0359 16.5771 19.2999 16.253 19.2999Z" fill="#1D2B54"/>
<path d="M18.723 23.7177H9.10241C8.77832 23.7177 8.51587 23.4537 8.51587 23.1281C8.51587 22.8024 8.77832 22.5384 9.10241 22.5384H18.723C19.0471 22.5384 19.3098 22.8024 19.3098 23.1281C19.3098 23.4537 19.0471 23.7177 18.723 23.7177Z" fill="#1D2B54"/>
<path d="M13.9128 26.4542H9.10241C8.77832 26.4542 8.51587 26.1902 8.51587 25.8646C8.51587 25.5389 8.77832 25.2749 9.10241 25.2749H13.9128C14.2369 25.2749 14.4994 25.5389 14.4994 25.8646C14.4994 26.1902 14.2369 26.4542 13.9128 26.4542Z" fill="#1D2B54"/>
<path d="M16.253 30.8794H9.10242C8.77832 30.8794 8.51587 30.6154 8.51587 30.2897C8.51587 29.964 8.77832 29.7 9.10242 29.7H16.253C16.5771 29.7 16.8398 29.964 16.8398 30.2897C16.8398 30.6154 16.5771 30.8794 16.253 30.8794Z" fill="#1D2B54"/>
<path d="M18.723 33.6155H9.10241C8.77832 33.6155 8.51587 33.3515 8.51587 33.0258C8.51587 32.7005 8.77832 32.4365 9.10241 32.4365H18.723C19.0471 32.4365 19.3098 32.7005 19.3098 33.0258C19.3098 33.3515 19.0471 33.6155 18.723 33.6155Z" fill="#1D2B54"/>
<path d="M5.27911 19.6381C3.97205 19.6381 2.90881 18.5694 2.90881 17.2556C2.90881 15.9418 3.97205 14.873 5.27911 14.873C6.58618 14.873 7.64941 15.9418 7.64941 17.2556C7.64941 18.5694 6.58618 19.6381 5.27911 19.6381ZM5.27911 16.0528C4.61932 16.0528 4.08252 16.5924 4.08252 17.2556C4.08252 17.9188 4.61932 18.4584 5.27911 18.4584C5.9389 18.4584 6.47571 17.9188 6.47571 17.2556C6.47571 16.5924 5.9389 16.0528 5.27911 16.0528Z" fill="#1D2B54"/>
<path d="M5.27911 26.8788C3.97205 26.8788 2.90881 25.8101 2.90881 24.4963C2.90881 23.1828 3.97205 22.1138 5.27911 22.1138C6.58618 22.1138 7.64941 23.1828 7.64941 24.4963C7.64941 25.8101 6.58618 26.8788 5.27911 26.8788ZM5.27911 23.2936C4.61932 23.2936 4.08252 23.8332 4.08252 24.4966C4.08252 25.1598 4.61932 25.6994 5.27911 25.6994C5.9389 25.6994 6.47571 25.1598 6.47571 24.4966C6.47571 23.8332 5.9389 23.2936 5.27911 23.2936Z" fill="#1D2B54"/>
<path d="M5.27911 34.0405C3.97205 34.0405 2.90881 32.9718 2.90881 31.658C2.90881 30.3442 3.97205 29.2755 5.27911 29.2755C6.58618 29.2755 7.64941 30.3442 7.64941 31.658C7.64941 32.9718 6.58618 34.0405 5.27911 34.0405ZM5.27911 30.4553C4.61932 30.4553 4.08252 30.9948 4.08252 31.658C4.08252 32.3212 4.61932 32.8608 5.27911 32.8608C5.9389 32.8608 6.47571 32.3212 6.47571 31.658C6.47571 30.9948 5.9389 30.4553 5.27911 30.4553Z" fill="#1D2B54"/>
<path d="M22.972 10.5724C22.6076 10.2065 22.1233 10.0047 21.6082 10.0047C21.0931 10.0047 20.6087 10.2065 20.2447 10.5724C19.8803 10.9387 19.6795 11.4255 19.6795 11.9433C19.6795 12.4611 19.8803 12.9479 20.2444 13.3138L23.5299 16.6163C23.894 16.9822 24.3786 17.1841 24.8937 17.1841C25.4089 17.1841 25.8929 16.9822 26.2572 16.6163L33.2769 9.56048C33.6413 9.19423 33.8418 8.70742 33.8418 8.18994C33.8418 7.67215 33.6413 7.18534 33.2769 6.81908C32.9128 6.45283 32.4282 6.25129 31.9131 6.25129C31.3979 6.25129 30.9136 6.45283 30.5496 6.81908L29.7756 7.59699C29.2022 7.15712 28.5729 6.80436 27.9061 6.54915V5.66725C27.9061 4.59823 27.0409 3.7286 25.9777 3.7286H19.9303V3.0556C19.9303 1.68965 18.8247 0.578308 17.4657 0.578308H10.7216C9.36269 0.578308 8.25703 1.68965 8.25703 3.0556V5.85467C8.25703 6.61356 8.87135 7.23105 9.62636 7.23105H18.561C19.316 7.23105 19.9303 6.61356 19.9303 5.85467V4.90835H25.9774C26.3937 4.90835 26.7324 5.24884 26.7324 5.66725V6.2105C26.2493 6.11234 25.7549 6.06019 25.2547 6.06019C21.1443 6.06019 17.8002 9.42153 17.8002 13.5531C17.8002 17.6847 21.1443 21.046 25.2547 21.046C25.7561 21.046 26.2505 20.9954 26.7324 20.8982V38.846C26.7324 39.2644 26.3937 39.6045 25.9774 39.6045H2.20966C1.7934 39.6045 1.45496 39.2644 1.45496 38.846V5.66725C1.45496 5.24884 1.7934 4.90835 2.20966 4.90835H6.11073C6.43483 4.90835 6.69758 4.64424 6.69758 4.31848C6.69758 3.99271 6.43483 3.7286 6.11073 3.7286H2.20966C1.14642 3.7286 0.28125 4.59823 0.28125 5.66725V38.846C0.28125 39.9147 1.14642 40.7843 2.20966 40.7843H25.9777C27.0409 40.7843 27.9061 39.9147 27.9061 38.846V20.5571C28.8406 20.1997 29.7024 19.6543 30.4397 18.9368C31.8337 17.5801 32.6385 15.7611 32.705 13.8148C32.716 13.4893 32.4627 13.2163 32.1386 13.205C31.817 13.1942 31.5432 13.4485 31.5319 13.7743C31.4382 16.5138 29.6459 18.7758 27.1847 19.5651C27.1508 19.573 27.1178 19.5835 27.0867 19.5973C26.5075 19.7724 25.8926 19.8663 25.2547 19.8663C21.7916 19.8663 18.9739 17.0341 18.9739 13.5531C18.9739 10.0721 21.7916 7.23994 25.2547 7.23994C26.585 7.23994 27.8707 7.66264 28.9373 8.43963L24.8937 12.5043L22.972 10.5724ZM18.7566 5.85467C18.7566 5.96326 18.669 6.05129 18.561 6.05129H9.62636C9.51833 6.05129 9.43074 5.96326 9.43074 5.85467V3.0556C9.43074 2.33996 10.0097 1.75806 10.7216 1.75806H17.4657C18.1774 1.75806 18.7566 2.33996 18.7566 3.0556V5.85467ZM31.3796 7.65344C31.5222 7.50988 31.7117 7.43104 31.9131 7.43104C32.1148 7.43104 32.3043 7.51019 32.4471 7.65344C32.7413 7.94914 32.7413 8.43073 32.4471 8.72644L25.4272 15.7822C25.2847 15.9255 25.0951 16.0046 24.8934 16.0046C24.6917 16.0046 24.5022 15.9255 24.3597 15.7822L21.0741 12.4798C20.9316 12.3365 20.8532 12.1461 20.8532 11.9433C20.8532 11.7405 20.9316 11.55 21.0744 11.4068C21.217 11.2635 21.4065 11.1844 21.6082 11.1844C21.8096 11.1844 21.9994 11.2635 22.1419 11.4068L24.4787 13.7556C24.7079 13.9859 25.0793 13.9859 25.3085 13.7556L31.3796 7.65344Z" fill="#1D2B54"/>
</svg>
