<svg width="40" height="41" viewBox="0 0 40 41" fill="none" xmlns="http://www.w3.org/2000/svg">
<path d="M16.1043 30.1933L10.5335 24.5939C9.99571 24.0533 9.99203 23.2398 10.5258 22.8966L14.5697 20.297L20.2339 25.9904L17.8114 30.1706C17.4841 30.7352 16.6544 30.7463 16.1043 30.1933Z" fill="#95CEEA"/>
<path d="M0.314589 24.554C0.234089 24.554 0.153666 24.5231 0.0922128 24.4614C-0.0306155 24.338 -0.0306155 24.1377 0.0922128 24.0143L7.39529 16.6736C7.51796 16.5501 7.71721 16.5501 7.84004 16.6736C7.96287 16.797 7.96287 16.9973 7.84004 17.1207L0.536966 24.4614C0.475591 24.5231 0.39509 24.554 0.314589 24.554Z" fill="#1D2B54"/>
<path d="M1.54447 17.1362C1.46397 17.1362 1.38347 17.1053 1.3221 17.0436C1.19919 16.9202 1.19919 16.7199 1.3221 16.5965L4.32019 13.5829C4.44294 13.4594 4.64227 13.4594 4.76494 13.5829C4.88784 13.7064 4.88784 13.9066 4.76494 14.0299L1.76685 17.0436C1.70555 17.1053 1.62497 17.1362 1.54447 17.1362Z" fill="#1D2B54"/>
<path d="M16.4583 40.7811C16.3778 40.7811 16.2974 40.7502 16.2359 40.6885C16.113 40.5651 16.113 40.3648 16.2359 40.2414L23.539 32.9007C23.6617 32.7772 23.8609 32.7772 23.9837 32.9007C24.1067 33.0242 24.1067 33.2244 23.9837 33.3477L16.6807 40.6885C16.6193 40.7503 16.5388 40.7811 16.4583 40.7811Z" fill="#1D2B54"/>
<path d="M23.8384 39.5449C23.7579 39.5449 23.6774 39.514 23.616 39.4523C23.4931 39.3289 23.4931 39.1286 23.616 39.0052L26.6142 35.9915C26.7369 35.8681 26.9361 35.8681 27.0589 35.9915C27.1818 36.115 27.1818 36.3152 27.0589 36.4386L24.0607 39.4523C23.9994 39.514 23.9188 39.5449 23.8384 39.5449Z" fill="#1D2B54"/>
<path d="M9.8435 26.8981L9.5447 27.7839C9.49218 27.9397 9.51922 28.1114 9.61705 28.2433L10.1734 28.9929C10.4199 29.3249 10.1806 29.7967 9.76864 29.7915L8.83845 29.7795C8.67487 29.7773 8.52068 29.8563 8.42623 29.9907L7.88906 30.7543C7.65117 31.0925 7.13077 31.0096 7.00849 30.6141L6.73234 29.721C6.68374 29.5639 6.56146 29.4409 6.40517 29.3921L5.51684 29.1145C5.12342 28.9915 5.04096 28.4683 5.37739 28.2292L6.13693 27.6891C6.2705 27.5942 6.34904 27.4392 6.34701 27.2747L6.33509 26.3395C6.32984 25.9254 6.79928 25.6849 7.12944 25.9326L7.87503 26.492C8.00617 26.5903 8.17705 26.6176 8.33201 26.5647L9.21305 26.2644C9.60325 26.1313 9.97581 26.5058 9.8435 26.8981Z" fill="#78C3E9"/>
<path d="M12.6171 33.994L12.3184 34.8796C12.2659 35.0354 12.2929 35.2071 12.3908 35.3389L12.9471 36.0883C13.1936 36.4203 12.9543 36.8921 12.5424 36.8868L11.6122 36.8748C11.4486 36.8727 11.2944 36.9516 11.1999 37.086L10.6628 37.8494C10.4249 38.1876 9.90448 38.1047 9.78219 37.7092L9.50605 36.8163C9.45753 36.6593 9.33517 36.5363 9.17887 36.4875L8.29046 36.2099C7.89704 36.087 7.81458 35.5639 8.15101 35.3248L8.91056 34.7849C9.04413 34.6899 9.12267 34.535 9.12063 34.3705L9.10871 33.4356C9.10346 33.0215 9.57291 32.7811 9.90306 33.0287L10.6487 33.588C10.7798 33.6863 10.9507 33.7135 11.1056 33.6607L11.9867 33.3604C12.3769 33.2273 12.7494 33.6018 12.6171 33.994Z" fill="#78C3E9"/>
<path d="M7.48561 31.2808C7.44282 31.2808 7.39963 31.2775 7.35628 31.2705C7.04893 31.2216 6.80061 31.0057 6.7082 30.7069L6.43205 29.814C6.41418 29.7563 6.36926 29.7112 6.31181 29.6932L5.42355 29.4156C5.12648 29.3228 4.91147 29.0733 4.86279 28.7643C4.81411 28.4553 4.94164 28.1511 5.19577 27.9705L5.95539 27.4306C6.00446 27.3957 6.03323 27.3388 6.03252 27.2783L6.02061 26.3434C6.01661 26.0306 6.18639 25.7481 6.46372 25.6061C6.7412 25.464 7.0683 25.4921 7.31764 25.6791L8.06323 26.2384C8.11128 26.2746 8.17399 26.2844 8.23113 26.2651L9.11202 25.9648C9.40674 25.8643 9.72647 25.9393 9.94665 26.1605C10.1668 26.3817 10.2414 26.7031 10.1414 26.9994V26.9994L9.84264 27.885C9.82336 27.9421 9.83331 28.0052 9.86929 28.0536L10.4257 28.803C10.6117 29.0537 10.6396 29.3827 10.4984 29.6613C10.3587 29.9368 10.0823 30.1069 9.77538 30.1069C9.77186 30.1069 9.76833 30.1068 9.7648 30.1068L8.83461 30.0948C8.77198 30.0915 8.7179 30.1231 8.68325 30.1723L8.146 30.9358C7.99159 31.1552 7.74648 31.2808 7.48561 31.2808ZM6.83432 26.1486C6.79654 26.1486 6.76573 26.1611 6.74927 26.1696C6.71886 26.1851 6.64839 26.2324 6.64964 26.3353L6.66156 27.2704C6.66493 27.5389 6.53669 27.7918 6.31863 27.9469L5.559 28.4868C5.47536 28.5462 5.47881 28.6315 5.48414 28.6654C5.48955 28.6992 5.51244 28.7813 5.61026 28.8118L6.49867 29.0894C6.75389 29.1692 6.95354 29.3699 7.03287 29.6264L7.30894 30.5193C7.33935 30.6175 7.42103 30.6407 7.45473 30.646C7.48836 30.6515 7.57325 30.6549 7.63235 30.5708L8.16952 29.8073C8.32166 29.591 8.56881 29.4626 8.83218 29.4626C8.83563 29.4626 8.83908 29.4627 8.84253 29.4627L9.77272 29.4746C9.87329 29.4781 9.9222 29.4049 9.93772 29.3744C9.95324 29.3438 9.98263 29.2639 9.92134 29.1814L9.36496 28.432C9.20514 28.2167 9.16101 27.9364 9.24676 27.6821L9.54556 26.7964V26.7965C9.5784 26.6989 9.52589 26.632 9.50174 26.6078C9.4776 26.5835 9.41121 26.5309 9.31401 26.5637L8.43313 26.8641C8.17987 26.9503 7.90113 26.9059 7.68698 26.7453L6.94131 26.186C6.90369 26.1576 6.86646 26.1486 6.83432 26.1486ZM9.8435 26.8979H9.84428H9.8435Z" fill="#1D2B54"/>
<path d="M10.2593 38.3769C10.2165 38.3769 10.1734 38.3735 10.13 38.3666C9.82259 38.3177 9.57427 38.1018 9.48185 37.803L9.20571 36.91C9.18783 36.8523 9.14292 36.8072 9.08546 36.7892L8.19714 36.5117C7.90006 36.4188 7.68513 36.1692 7.63638 35.8602C7.5877 35.5512 7.71531 35.2471 7.96943 35.0665L8.72897 34.5266C8.77804 34.4917 8.80689 34.4349 8.8061 34.3746L8.79419 33.4394C8.79027 33.1265 8.96005 32.844 9.23745 32.702C9.5147 32.5602 9.84195 32.5882 10.0913 32.7751L10.8369 33.3344C10.885 33.3705 10.9475 33.3808 11.0047 33.3611L11.8857 33.0609C12.1802 32.9604 12.5002 33.0353 12.7203 33.2566C12.9404 33.4778 13.0149 33.7992 12.915 34.0954V34.0954L12.6162 34.981C12.5969 35.0382 12.6068 35.1013 12.6428 35.1496L13.1992 35.8991C13.3853 36.1498 13.4131 36.4787 13.272 36.7573C13.1323 37.0328 12.8559 37.2029 12.5489 37.2029C12.5454 37.2029 12.5419 37.2029 12.5384 37.2029L11.6082 37.1909C11.5488 37.1927 11.4914 37.219 11.4568 37.2683L10.9196 38.0319C10.7652 38.2513 10.5202 38.3769 10.2593 38.3769ZM9.60797 33.2446C9.57019 33.2446 9.53939 33.2571 9.52293 33.2656C9.49251 33.2811 9.42197 33.3284 9.42322 33.4314L9.43514 34.3665C9.43859 34.6349 9.31043 34.8878 9.09213 35.043L8.33266 35.5828C8.24903 35.6422 8.2524 35.7275 8.25781 35.7613C8.26314 35.7952 8.28602 35.8774 8.38393 35.9079L9.27233 36.1855C9.52747 36.2652 9.72712 36.4659 9.80644 36.7223L10.0826 37.6153C10.113 37.7137 10.1947 37.7367 10.2284 37.7421C10.2624 37.7474 10.347 37.7508 10.406 37.6668L10.9432 36.9034C11.0953 36.687 11.3425 36.5586 11.6058 36.5586C11.6093 36.5586 11.6127 36.5587 11.6162 36.5587L12.5464 36.5707C12.5473 36.5707 12.5483 36.5707 12.5492 36.5707C12.6496 36.5707 12.696 36.5007 12.7114 36.4704C12.7269 36.4399 12.7563 36.3599 12.695 36.2774L12.1385 35.528C11.9788 35.3128 11.9347 35.0325 12.0204 34.7781L12.3192 33.8924V33.8925C12.352 33.795 12.2995 33.7281 12.2755 33.7039C12.2513 33.6796 12.1849 33.6269 12.0877 33.6598L11.2066 33.9601C10.9535 34.0464 10.6747 34.0019 10.4606 33.8414L9.71497 33.282C9.67734 33.2537 9.64011 33.2446 9.60797 33.2446ZM12.6171 33.994H12.6179H12.6171Z" fill="#1D2B54"/>
<path d="M39.6357 2.33887C39.791 1.42532 39.1411 0.772009 38.2322 0.928167L28.5198 0.898385C28.1153 0.897125 27.7158 1.03114 27.4135 1.30147C27.387 1.32518 27.3611 1.34976 27.3358 1.37513L25.2202 3.50139L23.6584 1.93161C23.3689 1.64057 22.9444 1.53168 22.5515 1.64774L4.72062 6.91252C3.90535 7.15329 3.64378 8.18345 4.24467 8.78744L12.1024 16.6856L11.8575 16.9318C11.1811 17.6117 11.0581 18.5905 11.5828 19.1179L21.5526 29.139C22.0773 29.6664 23.0511 29.5428 23.7275 28.8629L23.9724 28.6167L31.8302 36.5149C32.431 37.1188 33.4559 36.856 33.6954 36.0365L38.9333 18.1137C39.0487 17.7189 38.9403 17.2922 38.6509 17.0012L37.0886 15.4309L39.2114 13.2969C39.2139 13.2944 39.2164 13.2918 39.2189 13.2893C39.5281 12.9749 39.6877 12.5415 39.6855 12.0995L39.6357 2.33887Z" fill="#F9FBFC"/>
<path d="M14.1311 7.83523L11.2867 4.9762L7.36603 6.13527L11.5942 10.3853L14.1311 7.83523Z" fill="#78C3E9"/>
<path d="M32.7532 26.5533L35.5975 29.4123L34.4444 33.3531L30.2162 29.1033L32.7532 26.5533Z" fill="#78C3E9"/>
<path d="M39.4611 12.9648C39.6097 12.7043 39.687 12.4044 39.6855 12.0994L39.6357 2.33894C39.791 1.4254 39.1411 0.772166 38.2322 0.928245L28.5198 0.898384C28.2225 0.897517 27.9283 0.970318 27.673 1.11592L39.4611 12.9648Z" fill="#95CEEA"/>
<path d="M39.2463 12.5292C39.1665 12.4491 39.052 12.4267 38.9516 12.4597L39.3155 12.8251C39.3483 12.7242 39.326 12.6093 39.2463 12.5292Z" fill="#F9FBFC"/>
<path d="M39.2463 10.2868C39.3593 10.1733 39.3593 9.98944 39.2463 9.87602C39.1332 9.7626 38.9499 9.7626 38.8369 9.87602C38.7238 9.98944 38.7238 10.1734 38.8369 10.2868C38.9499 10.4002 39.1332 10.4002 39.2463 10.2868Z" fill="#F9FBFC"/>
<path d="M39.296 11.6135C39.409 11.5 39.409 11.3161 39.296 11.2026C39.1828 11.0891 38.9996 11.0891 38.8865 11.2026C38.7735 11.3161 38.7735 11.5 38.8865 11.6135C38.9996 11.727 39.1828 11.727 39.296 11.6135Z" fill="#F9FBFC"/>
<path d="M37.9266 11.2027C37.8468 11.1225 37.7323 11.1002 37.6319 11.1332L37.9958 11.4988C38.0286 11.398 38.0063 11.2829 37.9266 11.2027Z" fill="#F9FBFC"/>
<path d="M39.0415 7.71881C39.2014 7.71881 39.3311 7.58872 39.3311 7.42825C39.3311 7.26778 39.2014 7.1377 39.0415 7.1377C38.8816 7.1377 38.752 7.26778 38.752 7.42825C38.752 7.58872 38.8816 7.71881 39.0415 7.71881Z" fill="#F9FBFC"/>
<path d="M39.296 8.54934C39.1828 8.4359 38.9996 8.43583 38.8865 8.54934C38.7735 8.66286 38.7735 8.84678 38.8865 8.96021C38.9996 9.07373 39.1829 9.07373 39.296 8.96021C39.409 8.84678 39.409 8.66286 39.296 8.54934Z" fill="#F9FBFC"/>
<path d="M37.9265 8.96027C38.0396 8.84683 38.0396 8.66282 37.9265 8.54938C37.8135 8.43593 37.6301 8.43593 37.5171 8.54938C37.404 8.6629 37.404 8.84683 37.5171 8.96027C37.6301 9.07379 37.8134 9.07379 37.9265 8.96027Z" fill="#F9FBFC"/>
<path d="M37.5667 9.87612C37.4536 9.98975 37.4536 10.1741 37.5667 10.2877C37.6797 10.4014 37.8631 10.4014 37.9761 10.2877C38.0892 10.1741 38.0891 9.98975 37.9761 9.87612C37.8631 9.7624 37.6798 9.7624 37.5667 9.87612Z" fill="#F9FBFC"/>
<path d="M39.0415 5.0658C39.2014 5.0658 39.331 4.9355 39.331 4.77478C39.331 4.61406 39.2014 4.48376 39.0415 4.48376C38.8817 4.48376 38.7521 4.61406 38.7521 4.77478C38.7521 4.9355 38.8817 5.0658 39.0415 5.0658Z" fill="#F9FBFC"/>
<path d="M39.296 5.89717C39.1828 5.78354 38.9996 5.78354 38.8865 5.89717C38.7735 6.01072 38.7735 6.19491 38.8865 6.30846C38.9996 6.42208 39.1829 6.42208 39.296 6.30846C39.409 6.19491 39.409 6.01072 39.296 5.89717Z" fill="#F9FBFC"/>
<path d="M37.9762 7.63467C38.0893 7.52096 38.0892 7.33671 37.9762 7.22307C37.9205 7.16712 37.8478 7.13899 37.7748 7.13812L37.649 7.69149C37.7563 7.74193 37.8876 7.72372 37.9762 7.63467Z" fill="#F9FBFC"/>
<path d="M39.2462 2.32696C39.3593 2.21353 39.3593 2.02952 39.2462 1.91609C39.1739 1.84348 39.0729 1.81791 38.9799 1.83821C38.9791 1.84088 38.9786 1.84348 38.9778 1.84607L38.8634 2.34876C38.977 2.43851 39.1414 2.43206 39.2462 2.32696Z" fill="#F9FBFC"/>
<path d="M38.8865 3.24356C38.7734 3.35739 38.7734 3.54181 38.8865 3.65563C38.9995 3.76937 39.1828 3.76945 39.2958 3.65563C39.4089 3.54181 39.4089 3.35739 39.2958 3.24364C39.1828 3.12982 38.9996 3.12982 38.8865 3.24356Z" fill="#F9FBFC"/>
<path d="M38.9358 12.4475C38.9059 12.4615 38.8774 12.4799 38.8527 12.5048C38.7397 12.6186 38.7397 12.803 38.8527 12.9168C38.9658 13.0306 39.1491 13.0306 39.2621 12.9168C39.2868 12.8919 39.3051 12.8633 39.3191 12.8332L38.9358 12.4475Z" fill="#95CEEA"/>
<path d="M37.9424 14.2432C38.0554 14.1294 38.0554 13.945 37.9424 13.8313C37.8293 13.7175 37.646 13.7175 37.533 13.8313C37.4199 13.945 37.4199 14.1295 37.533 14.2432C37.646 14.3569 37.8293 14.3569 37.9424 14.2432Z" fill="#95CEEA"/>
<path d="M36.2132 15.1576C36.1002 15.2712 36.1002 15.4551 36.2132 15.5686C36.3263 15.682 36.5096 15.682 36.6226 15.5686C36.7357 15.4551 36.7357 15.2712 36.6226 15.1576C36.5096 15.0442 36.3263 15.0442 36.2132 15.1576Z" fill="#95CEEA"/>
<path d="M34.8934 16.4843C34.7803 16.5979 34.7803 16.7821 34.8934 16.8958C35.0064 17.0094 35.1898 17.0094 35.3028 16.8958C35.4158 16.7821 35.4158 16.5979 35.3028 16.4843C35.1897 16.3706 35.0064 16.3706 34.8934 16.4843Z" fill="#95CEEA"/>
<path d="M33.7783 18.3074C33.9382 18.3074 34.0678 18.1772 34.0678 18.0166C34.0678 17.856 33.9382 17.7258 33.7783 17.7258C33.6184 17.7258 33.4888 17.856 33.4888 18.0166C33.4888 18.1772 33.6184 18.3074 33.7783 18.3074Z" fill="#95CEEA"/>
<path d="M32.2538 19.1375C32.1408 19.2512 32.1408 19.4356 32.2538 19.5494C32.3668 19.6631 32.5501 19.6631 32.6632 19.5494C32.7763 19.4356 32.7763 19.2512 32.6632 19.1375C32.5501 19.0238 32.3669 19.0238 32.2538 19.1375Z" fill="#95CEEA"/>
<path d="M31.1388 20.9599C31.2987 20.9599 31.4283 20.8298 31.4283 20.6694C31.4283 20.5089 31.2987 20.3788 31.1388 20.3788C30.979 20.3788 30.8494 20.5089 30.8494 20.6694C30.8494 20.8298 30.979 20.9599 31.1388 20.9599Z" fill="#95CEEA"/>
<path d="M29.6143 21.7907C29.5012 21.9043 29.5012 22.0885 29.6143 22.2021C29.7273 22.3156 29.9107 22.3156 30.0237 22.2021C30.1367 22.0884 30.1367 21.9043 30.0237 21.7907C29.9107 21.6771 29.7273 21.6771 29.6143 21.7907Z" fill="#95CEEA"/>
<path d="M28.2946 23.117C28.1815 23.2305 28.1815 23.4145 28.2946 23.5279C28.4076 23.6415 28.5909 23.6415 28.704 23.5279C28.817 23.4145 28.817 23.2305 28.704 23.117C28.5909 23.0035 28.4076 23.0035 28.2946 23.117Z" fill="#95CEEA"/>
<path d="M26.9748 24.4437C26.8618 24.5573 26.8618 24.7415 26.9748 24.855C27.0879 24.9686 27.2712 24.9686 27.3842 24.855C27.4973 24.7415 27.4973 24.5573 27.3842 24.4437C27.2711 24.33 27.0879 24.33 26.9748 24.4437Z" fill="#95CEEA"/>
<path d="M25.655 25.7701C25.5419 25.8836 25.5419 26.0675 25.655 26.181C25.768 26.2945 25.9513 26.2945 26.0643 26.181C26.1774 26.0675 26.1774 25.8836 26.0643 25.7701C25.9513 25.6567 25.7681 25.6567 25.655 25.7701Z" fill="#95CEEA"/>
<path d="M24.7446 27.5082C24.8577 27.3946 24.8577 27.2104 24.7446 27.0969C24.6316 26.9833 24.4483 26.9833 24.3351 27.0969C24.2221 27.2105 24.2221 27.3946 24.3351 27.5082C24.4483 27.6218 24.6315 27.6218 24.7446 27.5082Z" fill="#95CEEA"/>
<path d="M23.0154 28.8342C23.1284 28.9478 23.3118 28.9478 23.4249 28.8342C23.5379 28.7207 23.5379 28.5367 23.4249 28.4233C23.3118 28.3098 23.1285 28.3098 23.0154 28.4233C22.9023 28.5367 22.9023 28.7207 23.0154 28.8342Z" fill="#95CEEA"/>
<path d="M37.533 11.5897C37.646 11.7034 37.8293 11.7034 37.9423 11.5897C37.967 11.5648 37.9854 11.5362 37.9993 11.5061L37.6161 11.1207C37.5862 11.1346 37.5577 11.1531 37.533 11.1779C37.4199 11.2917 37.4199 11.476 37.533 11.5897Z" fill="#95CEEA"/>
<path d="M37.5826 12.5046C37.4695 12.6181 37.4695 12.802 37.5826 12.9154C37.6957 13.0289 37.879 13.0289 37.992 12.9154C38.1052 12.802 38.1051 12.618 37.992 12.5046C37.879 12.3911 37.6957 12.3911 37.5826 12.5046Z" fill="#95CEEA"/>
<path d="M36.6226 12.9163C36.7357 12.8026 36.7357 12.6183 36.6226 12.5047C36.5096 12.3909 36.3263 12.3909 36.2132 12.5047C36.1002 12.6184 36.1002 12.8026 36.2132 12.9163C36.3263 13.03 36.5096 13.03 36.6226 12.9163Z" fill="#95CEEA"/>
<path d="M36.6722 13.831C36.5592 13.7175 36.3758 13.7175 36.2628 13.831C36.1498 13.9445 36.1498 14.1285 36.2628 14.2419C36.3758 14.3554 36.5592 14.3554 36.6722 14.2419C36.7852 14.1284 36.7852 13.9445 36.6722 13.831Z" fill="#95CEEA"/>
<path d="M35.3028 14.2432C35.4158 14.1294 35.4158 13.945 35.3028 13.8313C35.1898 13.7175 35.0064 13.7175 34.8934 13.8313C34.7803 13.945 34.7803 14.1295 34.8934 14.2432C35.0064 14.3569 35.1897 14.3569 35.3028 14.2432Z" fill="#95CEEA"/>
<path d="M35.3525 15.1576C35.2394 15.0442 35.0562 15.0442 34.9432 15.1576C34.8301 15.2712 34.8301 15.4551 34.9432 15.5686C35.0562 15.682 35.2395 15.682 35.3525 15.5686C35.4656 15.4552 35.4656 15.2712 35.3525 15.1576Z" fill="#95CEEA"/>
<path d="M33.7783 15.6543C33.9382 15.6543 34.0678 15.524 34.0678 15.3633C34.0678 15.2027 33.9382 15.0724 33.7783 15.0724C33.6183 15.0724 33.4887 15.2027 33.4887 15.3633C33.4887 15.524 33.6183 15.6543 33.7783 15.6543Z" fill="#95CEEA"/>
<path d="M34.0327 16.4843C33.9197 16.3706 33.7364 16.3706 33.6233 16.4843C33.5102 16.5979 33.5102 16.7821 33.6233 16.8958C33.7364 17.0094 33.9197 17.0094 34.0327 16.8958C34.1457 16.7821 34.1457 16.5979 34.0327 16.4843Z" fill="#95CEEA"/>
<path d="M32.6632 16.8958C32.7763 16.7821 32.7763 16.5979 32.6632 16.4843C32.5501 16.3706 32.3668 16.3706 32.2538 16.4843C32.1408 16.5979 32.1408 16.7821 32.2538 16.8958C32.3669 17.0094 32.5501 17.0094 32.6632 16.8958Z" fill="#95CEEA"/>
<path d="M32.7129 17.8106C32.5999 17.6971 32.4165 17.6971 32.3035 17.8105C32.1904 17.9241 32.1904 18.108 32.3035 18.2215C32.4166 18.335 32.5999 18.3351 32.7129 18.2215C32.826 18.1081 32.826 17.9241 32.7129 17.8106Z" fill="#95CEEA"/>
<path d="M31.1388 18.3074C31.2987 18.3074 31.4283 18.1772 31.4283 18.0166C31.4283 17.856 31.2987 17.7258 31.1388 17.7258C30.979 17.7258 30.8494 17.856 30.8494 18.0166C30.8494 18.1772 30.979 18.3074 31.1388 18.3074Z" fill="#95CEEA"/>
<path d="M31.3932 19.1375C31.2801 19.0238 31.0968 19.0238 30.9838 19.1375C30.8707 19.2512 30.8707 19.4356 30.9838 19.5494C31.0968 19.6631 31.2801 19.6631 31.3932 19.5494C31.5063 19.4356 31.5062 19.2512 31.3932 19.1375Z" fill="#95CEEA"/>
<path d="M30.0237 19.5494C30.1367 19.4356 30.1367 19.2512 30.0237 19.1375C29.9107 19.0238 29.7273 19.0238 29.6143 19.1375C29.5012 19.2512 29.5012 19.4356 29.6143 19.5494C29.7273 19.6631 29.9107 19.6631 30.0237 19.5494Z" fill="#95CEEA"/>
<path d="M30.0734 20.4639C29.9604 20.3503 29.777 20.3503 29.664 20.4639C29.5509 20.5773 29.5509 20.7613 29.664 20.8747C29.777 20.9882 29.9604 20.9882 30.0734 20.8747C30.1865 20.7613 30.1864 20.5773 30.0734 20.4639Z" fill="#95CEEA"/>
<path d="M28.704 20.8748C28.817 20.7614 28.817 20.5774 28.704 20.464C28.5909 20.3505 28.4076 20.3505 28.2946 20.464C28.1815 20.5774 28.1815 20.7614 28.2946 20.8748C28.4076 20.9883 28.5909 20.9883 28.704 20.8748Z" fill="#95CEEA"/>
<path d="M28.7537 21.7905C28.6406 21.677 28.4573 21.677 28.3442 21.7904C28.2312 21.9039 28.2312 22.0878 28.3442 22.2013C28.4574 22.3148 28.6406 22.3148 28.7537 22.2013C28.8667 22.0878 28.8667 21.9039 28.7537 21.7905Z" fill="#95CEEA"/>
<path d="M27.3842 22.2021C27.4973 22.0884 27.4973 21.9043 27.3842 21.7907C27.2711 21.6771 27.0879 21.6771 26.9748 21.7907C26.8618 21.9043 26.8618 22.0885 26.9748 22.2021C27.0879 22.3156 27.2711 22.3156 27.3842 22.2021Z" fill="#95CEEA"/>
<path d="M27.4338 23.1172C27.3207 23.0035 27.1375 23.0035 27.0244 23.1172C26.9114 23.2309 26.9114 23.4152 27.0244 23.5289C27.1375 23.6426 27.3208 23.6426 27.4338 23.5289C27.5469 23.4152 27.5469 23.2308 27.4338 23.1172Z" fill="#95CEEA"/>
<path d="M26.0643 23.5284C26.1774 23.4148 26.1774 23.2306 26.0643 23.1171C25.9513 23.0035 25.768 23.0035 25.655 23.1171C25.5419 23.2307 25.5419 23.4148 25.655 23.5284C25.768 23.6419 25.9512 23.6419 26.0643 23.5284Z" fill="#95CEEA"/>
<path d="M26.1141 24.4437C26.0011 24.33 25.8177 24.33 25.7047 24.4437C25.5916 24.5573 25.5916 24.7415 25.7047 24.855C25.8177 24.9686 26.0011 24.9686 26.1141 24.855C26.2272 24.7415 26.2272 24.5573 26.1141 24.4437Z" fill="#95CEEA"/>
<path d="M24.7446 24.8558C24.8577 24.7421 24.8577 24.5576 24.7446 24.4438C24.6316 24.33 24.4483 24.33 24.3351 24.4438C24.2221 24.5576 24.2221 24.7421 24.3351 24.8558C24.4483 24.9697 24.6315 24.9697 24.7446 24.8558Z" fill="#95CEEA"/>
<path d="M24.7943 26.1816C24.9073 26.0679 24.9073 25.8838 24.7943 25.7702C24.6813 25.6565 24.498 25.6565 24.3849 25.7702C24.2719 25.8838 24.2719 26.068 24.3849 26.1817C24.498 26.2953 24.6812 26.2953 24.7943 26.1816Z" fill="#95CEEA"/>
<path d="M23.0154 25.7701C22.9023 25.8836 22.9023 26.0675 23.0154 26.181C23.1284 26.2945 23.3118 26.2945 23.4249 26.181C23.5379 26.0675 23.5379 25.8836 23.4249 25.7701C23.3118 25.6567 23.1284 25.6567 23.0154 25.7701Z" fill="#95CEEA"/>
<path d="M23.0651 27.0969C22.952 27.2105 22.952 27.3946 23.0651 27.5082C23.1781 27.6218 23.3615 27.6218 23.4745 27.5082C23.5875 27.3946 23.5875 27.2104 23.4745 27.0969C23.3615 26.9833 23.1781 26.9833 23.0651 27.0969Z" fill="#95CEEA"/>
<path d="M21.6957 27.0969C21.5826 27.2105 21.5826 27.3946 21.6957 27.5082C21.8087 27.6218 21.992 27.6218 22.1051 27.5082C22.2182 27.3946 22.2182 27.2104 22.1051 27.0969C21.992 26.9833 21.8087 26.9833 21.6957 27.0969Z" fill="#95CEEA"/>
<path d="M21.7454 28.4232C21.6322 28.5366 21.6323 28.7206 21.7454 28.834C21.8584 28.9475 22.0417 28.9475 22.1548 28.834C22.2678 28.7206 22.2678 28.5366 22.1548 28.4232C22.0417 28.3097 21.8584 28.3097 21.7454 28.4232Z" fill="#95CEEA"/>
<path d="M36.6722 11.1779C36.5592 11.0645 36.3758 11.0645 36.2628 11.1779C36.1498 11.2914 36.1498 11.4754 36.2628 11.5889C36.3758 11.7023 36.5592 11.7023 36.6722 11.5889C36.7852 11.4754 36.7852 11.2914 36.6722 11.1779Z" fill="#95CEEA"/>
<path d="M35.3525 12.5047C35.2394 12.3909 35.0562 12.3909 34.9432 12.5047C34.8301 12.6184 34.8301 12.8026 34.9432 12.9163C35.0562 13.03 35.2395 13.03 35.3525 12.9163C35.4656 12.8026 35.4656 12.6184 35.3525 12.5047Z" fill="#95CEEA"/>
<path d="M34.0327 13.831C33.9197 13.7175 33.7364 13.7175 33.6233 13.831C33.5102 13.9445 33.5102 14.1285 33.6233 14.2419C33.7364 14.3554 33.9197 14.3554 34.0327 14.2419C34.1457 14.1284 34.1457 13.9445 34.0327 13.831Z" fill="#95CEEA"/>
<path d="M32.7129 15.1576C32.5999 15.0442 32.4165 15.0442 32.3035 15.1576C32.1904 15.2712 32.1904 15.4551 32.3035 15.5686C32.4166 15.682 32.5999 15.682 32.7129 15.5686C32.826 15.4552 32.826 15.2712 32.7129 15.1576Z" fill="#95CEEA"/>
<path d="M31.3932 16.4843C31.2801 16.3706 31.0968 16.3706 30.9838 16.4843C30.8707 16.5979 30.8707 16.7821 30.9838 16.8958C31.0968 17.0094 31.2801 17.0094 31.3932 16.8958C31.5063 16.7821 31.5062 16.5979 31.3932 16.4843Z" fill="#95CEEA"/>
<path d="M30.0734 17.8106C29.9604 17.6971 29.777 17.6971 29.664 17.8105C29.5509 17.9241 29.5509 18.108 29.664 18.2215C29.777 18.335 29.9604 18.3351 30.0734 18.2215C30.1865 18.1081 30.1864 17.9241 30.0734 17.8106Z" fill="#95CEEA"/>
<path d="M28.7537 19.1375C28.6406 19.0238 28.4573 19.0238 28.3442 19.1375C28.2312 19.2512 28.2312 19.4356 28.3442 19.5494C28.4574 19.6631 28.6406 19.6631 28.7537 19.5494C28.8667 19.4356 28.8667 19.2512 28.7537 19.1375Z" fill="#95CEEA"/>
<path d="M27.4338 20.4639C27.3207 20.3503 27.1375 20.3503 27.0244 20.4639C26.9114 20.5773 26.9114 20.7613 27.0244 20.8747C27.1375 20.9882 27.3208 20.9882 27.4338 20.8747C27.5469 20.7613 27.5469 20.5773 27.4338 20.4639Z" fill="#95CEEA"/>
<path d="M26.1141 21.7905C26.0011 21.677 25.8177 21.677 25.7047 21.7904C25.5916 21.9039 25.5916 22.0878 25.7047 22.2013C25.8177 22.3148 26.0011 22.3148 26.1141 22.2013C26.2272 22.0878 26.2272 21.9039 26.1141 21.7905Z" fill="#95CEEA"/>
<path d="M24.7942 23.1172C24.6812 23.0035 24.4979 23.0035 24.3848 23.1172C24.2718 23.2309 24.2718 23.4152 24.3848 23.5289C24.4979 23.6426 24.6812 23.6426 24.7943 23.5289C24.9074 23.4152 24.9074 23.2308 24.7942 23.1172Z" fill="#95CEEA"/>
<path d="M23.0651 24.4437C22.952 24.5573 22.952 24.7415 23.0651 24.855C23.1781 24.9686 23.3615 24.9686 23.4745 24.855C23.5875 24.7415 23.5875 24.5573 23.4745 24.4437C23.3615 24.33 23.1781 24.33 23.0651 24.4437Z" fill="#95CEEA"/>
<path d="M21.7454 25.7703C21.6322 25.884 21.6323 26.0681 21.7454 26.1817C21.8584 26.2952 22.0417 26.2952 22.1548 26.1817C22.2678 26.0681 22.2678 25.884 22.1548 25.7704C22.0417 25.6568 21.8584 25.6568 21.7454 25.7703Z" fill="#95CEEA"/>
<path d="M20.835 27.5076C20.948 27.3941 20.948 27.2101 20.835 27.0967C20.722 26.9833 20.5386 26.9832 20.4256 27.0967C20.3125 27.2102 20.3126 27.3941 20.4256 27.5076C20.5386 27.6211 20.7219 27.6211 20.835 27.5076Z" fill="#95CEEA"/>
<path d="M39.9502 2.33831C39.95 1.24512 39.3419 0.631835 38.2332 0.611508L28.5207 0.581726C28.5185 0.581726 28.5164 0.581726 28.5142 0.581726C28.0178 0.581726 27.5528 0.753169 27.2043 1.06485C27.1733 1.09267 27.1429 1.12142 27.1133 1.15121L25.2203 3.05386L23.8808 1.70753C23.5098 1.33439 22.9664 1.19517 22.463 1.34384L4.63187 6.6087C4.1415 6.75359 3.77317 7.13721 3.64682 7.63507C3.52046 8.13294 3.66077 8.64719 4.02228 9.01048L11.6576 16.6851L11.6351 16.7078C11.2588 17.0859 11.0182 17.5597 10.9577 18.0419C10.8933 18.5539 11.0364 19.0153 11.3605 19.3409L12.9646 20.9534L10.3563 22.6302C10.0519 22.8259 9.86184 23.141 9.82116 23.5173C9.77186 23.9735 9.95504 24.4595 10.3111 24.8174L15.8819 30.4169V30.417C16.2006 30.7373 16.618 30.9173 17.0269 30.9173C17.0858 30.9173 17.1446 30.9136 17.2028 30.9059C17.5839 30.8563 17.8966 30.6516 18.083 30.3298L19.6325 27.6558L21.3301 29.3622C21.609 29.6426 21.9863 29.7789 22.3894 29.7789C22.9205 29.7789 23.4961 29.542 23.9499 29.086L23.9724 29.0635L31.6077 36.7381C31.8818 37.0135 32.2419 37.1613 32.616 37.1613C32.7354 37.1613 32.8562 37.1463 32.9759 37.1155C33.4713 36.9885 33.8531 36.6183 33.9972 36.1253L39.235 18.2025C39.3829 17.6965 39.2443 17.1503 38.8733 16.7773H38.8732L37.5334 15.4305L39.4338 13.52C39.4349 13.5188 39.4415 13.5122 39.4426 13.511C39.7995 13.148 40.0026 12.6328 40 12.0973L39.9502 2.33831ZM4.46695 8.56336C4.26417 8.35945 4.1854 8.07085 4.25633 7.79139C4.32727 7.51193 4.53397 7.2966 4.80918 7.21537L22.6403 1.95059C22.7151 1.92853 22.7914 1.91774 22.8672 1.91774C23.0775 1.91774 23.2829 2.00078 23.436 2.15473L24.7754 3.50106L12.1024 16.238L4.46695 8.56336ZM17.5395 30.0113C17.4291 30.2018 17.2515 30.2619 17.1218 30.2789C16.8513 30.3139 16.5542 30.1984 16.3265 29.9696V29.9697L10.7557 24.3702C10.5331 24.1465 10.4175 23.8531 10.4464 23.5855C10.4603 23.4567 10.5148 23.2788 10.6951 23.1629L13.42 21.4112L19.1725 27.1934L17.5395 30.0113ZM38.4284 17.2242C38.6367 17.4336 38.7145 17.7401 38.6315 18.0242L33.3936 35.947C33.3128 36.2237 33.0985 36.4315 32.8205 36.5028C32.5427 36.574 32.2555 36.4949 32.0526 36.291L24.4172 28.6164L37.0886 15.8777L38.4284 17.2242ZM38.9965 13.0652L23.5051 28.6389C22.9522 29.1944 22.1763 29.318 21.775 28.915L11.8052 18.8938C11.6217 18.7093 11.5423 18.435 11.5817 18.1211C11.6249 17.7775 11.8018 17.4343 12.0798 17.1547L27.5581 1.59825C27.5791 1.57729 27.6006 1.55681 27.6225 1.53719C27.8556 1.32872 28.1721 1.214 28.5141 1.214H28.5188L38.2264 1.24378C38.9834 1.25765 39.3209 1.59534 39.3211 2.34004L39.3709 12.1005C39.3727 12.4696 39.2358 12.8217 38.9965 13.0652Z" fill="#1D2B54"/>
<path d="M25.5094 20.0579C25.4289 20.0579 25.3484 20.027 25.287 19.9652L20.71 15.3638C20.5871 15.2404 20.5871 15.0401 20.71 14.9166C20.8327 14.7932 21.032 14.7932 21.1548 14.9166L25.7317 19.5181C25.8546 19.6415 25.8546 19.8418 25.7317 19.9652C25.6704 20.027 25.5899 20.0579 25.5094 20.0579Z" fill="#1D2B54"/>
<path d="M23.5107 22.0649C23.4302 22.0649 23.3497 22.034 23.2883 21.9722L18.7114 17.3726C18.5885 17.2492 18.5885 17.049 18.7114 16.9256C18.8341 16.8021 19.0335 16.8021 19.1561 16.9256L23.7331 21.5253C23.856 21.6486 23.856 21.8489 23.7331 21.9722C23.6718 22.034 23.5912 22.0649 23.5107 22.0649Z" fill="#1D2B54"/>
<path d="M28.6841 16.6745C31.2805 16.6745 33.3852 14.5589 33.3852 11.9492C33.3852 9.33952 31.2805 7.22394 28.6841 7.22394C26.0878 7.22394 23.9831 9.33952 23.9831 11.9492C23.9831 14.5589 26.0878 16.6745 28.6841 16.6745Z" fill="#95CEEA"/>
<path d="M28.6842 14.5224C30.098 14.5224 31.2441 13.3704 31.2441 11.9493C31.2441 10.5282 30.098 9.37616 28.6842 9.37616C27.2703 9.37616 26.1242 10.5282 26.1242 11.9493C26.1242 13.3704 27.2703 14.5224 28.6842 14.5224Z" fill="#1D2B54"/>
</svg>
