<svg width="41" height="41" viewBox="0 0 41 41" fill="none" xmlns="http://www.w3.org/2000/svg">
<circle cx="20.54" cy="20.5127" r="20" fill="white"/>
<g filter="url(#filter0_d)">
<path d="M16.936 25.9034C16.7561 25.903 16.5795 25.8559 16.4233 25.7666C16.0718 25.5673 15.8532 25.1806 15.8532 24.7608V16.2647C15.8532 15.8437 16.0718 15.4582 16.4233 15.2589C16.5832 15.1671 16.7648 15.1198 16.9491 15.1222C17.1335 15.1245 17.3138 15.1763 17.4713 15.2721L24.7325 19.6186C24.8838 19.7135 25.0086 19.8453 25.0951 20.0016C25.1815 20.1578 25.2269 20.3335 25.2269 20.5122C25.2269 20.6908 25.1815 20.8665 25.0951 21.0228C25.0086 21.1791 24.8838 21.3108 24.7325 21.4057L17.4701 25.7534C17.3089 25.8508 17.1243 25.9026 16.936 25.9034Z" fill="#007CBA"/>
</g>
<defs>
<filter id="filter0_d" x="5.85321" y="10.1221" width="29.3737" height="30.7813" filterUnits="userSpaceOnUse" color-interpolation-filters="sRGB">
<feFlood flood-opacity="0" result="BackgroundImageFix"/>
<feColorMatrix in="SourceAlpha" type="matrix" values="0 0 0 0 0 0 0 0 0 0 0 0 0 0 0 0 0 0 127 0"/>
<feOffset dy="5"/>
<feGaussianBlur stdDeviation="5"/>
<feColorMatrix type="matrix" values="0 0 0 0 0 0 0 0 0 0.486275 0 0 0 0 0.729412 0 0 0 0.4 0"/>
<feBlend mode="normal" in2="BackgroundImageFix" result="effect1_dropShadow"/>
<feBlend mode="normal" in="SourceGraphic" in2="effect1_dropShadow" result="shape"/>
</filter>
</defs>
</svg>
