<svg width="16" height="15" viewBox="0 0 16 15" fill="none" xmlns="http://www.w3.org/2000/svg">
<g clip-path="url(#clip0)">
<path d="M9.07975 5.42331L6.85582 7.63803L5.92637 6.70245L4.95398 7.66871L5.88343 8.60122L6.84969 9.57055L7.82208 8.60429L10.046 6.3957L9.07975 5.42331Z" fill="#737E99"/>
<path d="M14.5061 6.32822H13.3834C13.227 5.53988 12.9172 4.80675 12.4847 4.16258L13.2791 3.3681C13.4724 3.17485 13.4724 2.86196 13.2791 2.66871L12.3252 1.71472C12.1319 1.52147 11.819 1.52147 11.6258 1.71472L10.8313 2.51227C10.1871 2.07975 9.45399 1.76994 8.66564 1.6135V0.493865C8.66564 0.220859 8.44479 0 8.17178 0H6.82515C6.55215 0 6.33129 0.220859 6.33129 0.493865V1.61656C5.54294 1.77301 4.80982 2.08282 4.16564 2.51534L3.37117 1.72086C3.17791 1.52761 2.86503 1.52761 2.67178 1.72086L1.71779 2.67178C1.52454 2.86503 1.52454 3.17791 1.71779 3.37117L2.51227 4.16564C2.07975 4.80982 1.76994 5.54294 1.6135 6.33129H0.493865C0.220859 6.33129 0 6.55215 0 6.82515V8.17485C0 8.44785 0.220859 8.66871 0.493865 8.66871H1.61656C1.77301 9.45706 2.08282 10.1902 2.51534 10.8344L1.72086 11.6258C1.52761 11.819 1.52761 12.1319 1.72086 12.3252L2.67485 13.2791C2.8681 13.4724 3.18098 13.4724 3.37423 13.2791L4.16871 12.4847C4.81288 12.9172 5.54601 13.227 6.33436 13.3834V14.5061C6.33436 14.7791 6.55521 15 6.82822 15H8.17485C8.44785 15 8.66871 14.7791 8.66871 14.5061V13.3834C9.45706 13.227 10.1902 12.9172 10.8344 12.4847L11.6288 13.2791C11.8221 13.4724 12.135 13.4724 12.3282 13.2791L13.2822 12.3252C13.4755 12.1319 13.4755 11.819 13.2822 11.6258L12.4877 10.8344C12.9202 10.1902 13.2301 9.45706 13.3865 8.66871H14.5092C14.7822 8.66871 15.0031 8.44785 15.0031 8.17485V6.82515C15 6.54908 14.7791 6.32822 14.5061 6.32822ZM7.5 11.4325C5.32822 11.4325 3.56748 9.67178 3.56748 7.5C3.56748 5.32822 5.32822 3.56748 7.5 3.56748C9.67178 3.56748 11.4325 5.32822 11.4325 7.5C11.4325 9.67178 9.67178 11.4325 7.5 11.4325Z" fill="#737E99"/>
</g>
<defs>
<clipPath id="clip0">
<rect width="15.0031" height="15" fill="white"/>
</clipPath>
</defs>
</svg>
